999
dxfrw 0.5.10
0
SECTION
2
HEADER
9
$ACADVER
1
AC1021
9
$HANDSEED
5
20000
9
$DWGCODEPAGE
3
ANSI_1252
9
$INSBASE
10
0
20
0
30
0
9
$EXTMIN
10
-24.4295860308
20
141.049575236
30
0
9
$EXTMAX
10
272.706352234
20
313.246002002
30
0
9
$LIMMIN
10
0
20
0
9
$LIMMAX
10
420
20
297
9
$ORTHOMODE
70
0
9
$LTSCALE
40
1
9
$TEXTSTYLE
7
STANDARD
9
$CLAYER
8
0
9
$DIMASZ
40
2.5
9
$DIMLFAC
40
1
9
$DIMSCALE
40
1
9
$DIMEXO
40
0.625
9
$DIMEXE
40
1.25
9
$DIMTXT
40
2.5
9
$DIMTSZ
40
0
9
$DIMAUNIT
70
0
9
$DIMADEC
70
0
9
$DIMLUNIT
70
2
9
$DIMSTYLE
2
Standard
9
$DIMGAP
40
0.625
9
$DIMTIH
70
0
9
$LUNITS
70
2
9
$LUPREC
70
4
9
$AUNITS
70
0
9
$AUPREC
70
2
9
$SPLINESEGS
70
8
9
$PINSBASE
10
0
20
0
30
0
9
$PLIMMIN
10
0
20
0
9
$PLIMMAX
10
210
20
297
9
$INSUNITS
70
0
9
$PSVPSCALE
40
0
0
ENDSEC
0
SECTION
2
CLASSES
0
ENDSEC
0
SECTION
2
TABLES
0
TABLE
2
VPORT
5
8
330
0
100
AcDbSymbolTable
70
1
0
VPORT
5
31
330
2
100
AcDbSymbolTableRecord
100
AcDbViewportTableRecord
2
*ACTIVE
70
0
10
0
20
0
11
1
21
1
12
39.51370296
22
92.1387709932
13
0
23
0
14
10
24
10
15
10
25
10
16
0
26
0
36
1
17
0
27
0
37
0
40
43.0340146783
41
1.88313856427
42
50
43
0
44
0
50
0
51
0
71
0
72
100
73
1
74
3
75
0
76
1
77
0
78
0
281
0
65
1
110
0
120
0
130
0
111
1
121
0
131
0
112
0
122
1
132
0
79
0
146
0
348
10020
60
7
61
5
292
1
282
1
141
0
142
0
63
250
421
3358443
0
ENDTAB
0
TABLE
2
LTYPE
5
5
330
0
100
AcDbSymbolTable
70
4
0
LTYPE
5
14
330
5
100
AcDbSymbolTableRecord
100
AcDbLinetypeTableRecord
2
ByBlock
70
0
3

72
65
73
0
40
0
0
LTYPE
5
15
330
5
100
AcDbSymbolTableRecord
100
AcDbLinetypeTableRecord
2
ByLayer
70
0
3

72
65
73
0
40
0
0
LTYPE
5
16
330
5
100
AcDbSymbolTableRecord
100
AcDbLinetypeTableRecord
2
Continuous
70
0
3
Solid line
72
65
73
0
40
0
0
LTYPE
5
32
330
5
100
AcDbSymbolTableRecord
100
AcDbLinetypeTableRecord
2
DOT
70
0
3
Dot . . . . . . . . . . . . . . . . . . . . . .
72
65
73
2
40
6.35
49
0
74
0
49
-6.35
74
0
0
LTYPE
5
33
330
5
100
AcDbSymbolTableRecord
100
AcDbLinetypeTableRecord
2
DOT2
70
0
3
Dot (.5x) .....................................
72
65
73
2
40
3.175
49
0
74
0
49
-3.175
74
0
0
LTYPE
5
34
330
5
100
AcDbSymbolTableRecord
100
AcDbLinetypeTableRecord
2
DOTX2
70
0
3
Dot (2x) .  .  .  .  .  .  .  .  .  .  .  .  .
72
65
73
2
40
12.7
49
0
74
0
49
-12.7
74
0
0
LTYPE
5
35
330
5
100
AcDbSymbolTableRecord
100
AcDbLinetypeTableRecord
2
DASHED
70
0
3
Dot . . . . . . . . . . . . . . . . . . . . . .
72
65
73
2
40
19.05
49
12.7
74
0
49
-6.35
74
0
0
LTYPE
5
36
330
5
100
AcDbSymbolTableRecord
100
AcDbLinetypeTableRecord
2
DASHED2
70
0
3
Dashed (.5x) _ _ _ _ _ _ _ _ _ _ _ _ _ _ _ _ _
72
65
73
2
40
9.525
49
6.35
74
0
49
-3.175
74
0
0
LTYPE
5
37
330
5
100
AcDbSymbolTableRecord
100
AcDbLinetypeTableRecord
2
DASHEDX2
70
0
3
Dashed (2x) ____  ____  ____  ____  ____  ___
72
65
73
2
40
38.1
49
25.4
74
0
49
-12.7
74
0
0
LTYPE
5
38
330
5
100
AcDbSymbolTableRecord
100
AcDbLinetypeTableRecord
2
DASHDOT
70
0
3
Dash dot __ . __ . __ . __ . __ . __ . __ . __
72
65
73
4
40
25.4
49
12.7
74
0
49
-6.35
74
0
49
0
74
0
49
-6.35
74
0
0
LTYPE
5
39
330
5
100
AcDbSymbolTableRecord
100
AcDbLinetypeTableRecord
2
DASHDOT2
70
0
3
Dash dot (.5x) _._._._._._._._._._._._._._._.
72
65
73
4
40
12.7
49
6.35
74
0
49
-3.175
74
0
49
0
74
0
49
-3.175
74
0
0
LTYPE
5
3A
330
5
100
AcDbSymbolTableRecord
100
AcDbLinetypeTableRecord
2
DASHDOTX2
70
0
3
Dash dot (2x) ____  .  ____  .  ____  .  ___
72
65
73
4
40
50.8
49
25.4
74
0
49
-12.7
74
0
49
0
74
0
49
-12.7
74
0
0
LTYPE
5
3B
330
5
100
AcDbSymbolTableRecord
100
AcDbLinetypeTableRecord
2
DIVIDE
70
0
3
Divide ____ . . ____ . . ____ . . ____ . . ____
72
65
73
6
40
31.75
49
12.7
74
0
49
-6.35
74
0
49
0
74
0
49
-6.35
74
0
49
0
74
0
49
-6.35
74
0
0
LTYPE
5
3C
330
5
100
AcDbSymbolTableRecord
100
AcDbLinetypeTableRecord
2
DIVIDE2
70
0
3
Divide (.5x) __..__..__..__..__..__..__..__.._
72
65
73
6
40
15.875
49
6.35
74
0
49
-3.175
74
0
49
0
74
0
49
-3.175
74
0
49
0
74
0
49
-3.175
74
0
0
LTYPE
5
3D
330
5
100
AcDbSymbolTableRecord
100
AcDbLinetypeTableRecord
2
DIVIDEX2
70
0
3
Divide (2x) ________  .  .  ________  .  .  _
72
65
73
6
40
63.5
49
25.4
74
0
49
-12.7
74
0
49
0
74
0
49
-12.7
74
0
49
0
74
0
49
-12.7
74
0
0
LTYPE
5
3E
330
5
100
AcDbSymbolTableRecord
100
AcDbLinetypeTableRecord
2
BORDER
70
0
3
Border __ __ . __ __ . __ __ . __ __ . __ __ .
72
65
73
6
40
44.45
49
12.7
74
0
49
-6.35
74
0
49
12.7
74
0
49
-6.35
74
0
49
0
74
0
49
-6.35
74
0
0
LTYPE
5
3F
330
5
100
AcDbSymbolTableRecord
100
AcDbLinetypeTableRecord
2
BORDER2
70
0
3
Border (.5x) __.__.__.__.__.__.__.__.__.__.__.
72
65
73
6
40
22.225
49
6.35
74
0
49
-3.175
74
0
49
6.35
74
0
49
-3.175
74
0
49
0
74
0
49
-3.175
74
0
0
LTYPE
5
40
330
5
100
AcDbSymbolTableRecord
100
AcDbLinetypeTableRecord
2
BORDERX2
70
0
3
Border (2x) ____  ____  .  ____  ____  .  ___
72
65
73
6
40
88.9
49
25.4
74
0
49
-12.7
74
0
49
25.4
74
0
49
-12.7
74
0
49
0
74
0
49
-12.7
74
0
0
LTYPE
5
41
330
5
100
AcDbSymbolTableRecord
100
AcDbLinetypeTableRecord
2
CENTER
70
0
3
Center ____ _ ____ _ ____ _ ____ _ ____ _ ____
72
65
73
4
40
50.8
49
31.75
74
0
49
-6.35
74
0
49
6.35
74
0
49
-6.35
74
0
0
LTYPE
5
42
330
5
100
AcDbSymbolTableRecord
100
AcDbLinetypeTableRecord
2
CENTER2
70
0
3
Center (.5x) ___ _ ___ _ ___ _ ___ _ ___ _ ___
72
65
73
4
40
28.575
49
19.05
74
0
49
-3.175
74
0
49
3.175
74
0
49
-3.175
74
0
0
LTYPE
5
43
330
5
100
AcDbSymbolTableRecord
100
AcDbLinetypeTableRecord
2
CENTERX2
70
0
3
Center (2x) ________  __  ________  __  _____
72
65
73
4
40
101.6
49
63.5
74
0
49
-12.7
74
0
49
12.7
74
0
49
-12.7
74
0
0
ENDTAB
0
TABLE
2
LAYER
5
2
330
0
100
AcDbSymbolTable
70
1
0
LAYER
5
10
330
2
100
AcDbSymbolTableRecord
100
AcDbLayerTableRecord
2
0
70
0
62
7
6
CONTINUOUS
370
-3
390
F
0
ENDTAB
0
TABLE
2
STYLE
5
3
330
0
100
AcDbSymbolTable
70
3
0
STYLE
5
44
330
2
100
AcDbSymbolTableRecord
100
AcDbTextStyleTableRecord
2
Standard
70
0
40
0
41
1
50
0
71
0
42
1
3
txt
4

0
ENDTAB
0
TABLE
2
VIEW
5
6
330
0
100
AcDbSymbolTable
70
0
0
ENDTAB
0
TABLE
2
UCS
5
7
330
0
100
AcDbSymbolTable
70
0
0
ENDTAB
0
TABLE
2
APPID
5
9
330
0
100
AcDbSymbolTable
70
1
0
APPID
5
12
330
9
100
AcDbSymbolTableRecord
100
AcDbRegAppTableRecord
2
ACAD
70
0
0
ENDTAB
0
TABLE
2
DIMSTYLE
5
A
330
0
100
AcDbSymbolTable
70
1
100
AcDbDimStyleTable
71
1
0
DIMSTYLE
105
45
330
A
100
AcDbSymbolTableRecord
100
AcDbDimStyleTableRecord
2
Standard
70
0
40
1
41
2.5
42
0.625
43
0.38
44
1.25
45
0
46
0
47
0
48
0
140
2.5
141
0.09
142
0
143
25.4
144
1
145
0
146
1
147
0.625
148
0
71
0
72
0
73
0
74
1
75
0
76
0
77
0
78
0
79
0
170
0
171
2
172
0
173
0
174
0
175
0
176
0
177
0
178
0
179
0
271
4
272
4
273
2
274
2
275
0
276
0
277
2
278
46
279
0
280
0
281
0
282
0
283
1
284
0
285
0
286
0
288
0
289
3
340
Standard
341

371
-2
372
-2
0
ENDTAB
0
TABLE
2
BLOCK_RECORD
5
1
330
0
100
AcDbSymbolTable
70
2
0
BLOCK_RECORD
5
1F
330
1
100
AcDbSymbolTableRecord
100
AcDbBlockTableRecord
2
*Model_Space
70
0
280
1
281
0
0
BLOCK_RECORD
5
1E
330
1
100
AcDbSymbolTableRecord
100
AcDbBlockTableRecord
2
*Paper_Space
70
0
280
1
281
0
0
BLOCK_RECORD
5
46
330
1
100
AcDbSymbolTableRecord
100
AcDbBlockTableRecord
2
SHAPESTRING002
70
0
280
1
281
0
0
BLOCK_RECORD
5
49
330
1
100
AcDbSymbolTableRecord
100
AcDbBlockTableRecord
2
POLYGON004
70
0
280
1
281
0
0
BLOCK_RECORD
5
4C
330
1
100
AcDbSymbolTableRecord
100
AcDbBlockTableRecord
2
POLYGON005
70
0
280
1
281
0
0
BLOCK_RECORD
5
4F
330
1
100
AcDbSymbolTableRecord
100
AcDbBlockTableRecord
2
POLYGON007
70
0
280
1
281
0
0
BLOCK_RECORD
5
52
330
1
100
AcDbSymbolTableRecord
100
AcDbBlockTableRecord
2
SHAPESTRING
70
0
280
1
281
0
0
BLOCK_RECORD
5
55
330
1
100
AcDbSymbolTableRecord
100
AcDbBlockTableRecord
2
SHAPESTRING001
70
0
280
1
281
0
0
ENDTAB
0
ENDSEC
0
SECTION
2
BLOCKS
0
BLOCK
5
20
330
1F
100
AcDbEntity
8
0
100
AcDbBlockBegin
2
*Model_Space
70
0
10
0
20
0
30
0
3
*Model_Space
1

0
ENDBLK
5
21
330
1F
100
AcDbEntity
8
0
100
AcDbBlockEnd
0
BLOCK
5
1C
330
1B
100
AcDbEntity
8
0
100
AcDbBlockBegin
2
*Paper_Space
70
0
10
0
20
0
30
0
3
*Paper_Space
1

0
ENDBLK
5
1D
330
1F
100
AcDbEntity
8
0
100
AcDbBlockEnd
0
BLOCK
5
47
330
46
100
AcDbEntity
8
0
100
AcDbBlockBegin
2
SHAPESTRING002
70
0
10
0
20
0
3
SHAPESTRING002
1

0
LWPOLYLINE
5
58
100
AcDbEntity
8
0
6
ByLayer
62
0
370
-1
100
AcDbPolyline
90
23
70
1
43
0
10
204.445613109
20
275.940272449
10
204.445613109
20
275.624196159
10
203.832534099
20
275.077874641
10
203.948337912
20
274.684141676
10
204.31482292
20
274.526103531
10
204.749427819
20
274.933460474
10
204.991934628
20
275.68550406
10
205.686757506
20
276.091498605
10
206.422452319
20
275.707302425
10
206.62
20
274.857166197
10
206.478310629
20
273.914386919
10
205.754877396
20
273.914386919
10
205.754877396
20
274.249536778
10
206.280762948
20
274.391226149
10
206.464686651
20
274.889863744
10
206.324359677
20
275.299945482
10
205.930626713
20
275.467520412
10
205.444250698
20
275.065613061
10
205.193569502
20
274.317656668
10
204.509645806
20
273.914386919
10
203.846158077
20
274.28495912
10
203.655422385
20
275.061525867
10
203.791662165
20
275.940272449
0
LWPOLYLINE
5
59
100
AcDbEntity
8
0
6
ByLayer
62
0
370
-1
100
AcDbPolyline
90
24
70
1
43
0
10
206.429264308
20
277.640544905
10
206.62
20
277.009754723
10
206.464686651
20
276.586049007
10
206.045068128
20
276.442997237
10
205.555967317
20
276.704577615
10
205.460599471
20
277.279509487
10
205.463324267
20
277.455258804
10
205.464686665
20
277.620108938
10
205.158147159
20
277.632370518
10
204.768501388
20
277.357166162
10
204.887029997
20
277.120108945
10
205.107738441
20
277.079237011
10
205.226267049
20
276.98659396
10
205.226267049
20
276.695040831
10
205.098201656
20
276.60239778
10
204.614550437
20
277.378964527
10
204.821634903
20
278.076512201
10
205.393841979
20
278.229100755
10
205.824359684
20
278.211389583
10
206.328446871
20
278.192316014
10
206.441525888
20
278.306757429
10
206.442888286
20
278.493405928
10
206.62
20
278.493405928
10
206.62
20
277.640544905
0
LWPOLYLINE
5
5A
100
AcDbEntity
8
0
6
ByLayer
62
0
370
-1
100
AcDbPolyline
90
6
70
1
43
0
10
205.644523174
20
277.620108938
10
205.644523174
20
277.468882782
10
205.760326987
20
277.136457718
10
206.107738427
20
277.051989055
10
206.380217987
20
277.313569432
10
206.021907365
20
277.620108938
0
LWPOLYLINE
5
5B
100
AcDbEntity
8
0
6
ByLayer
62
0
370
-1
100
AcDbPolyline
90
19
70
1
43
0
10
206.408828341
20
280.160980837
10
206.242615809
20
280.606484918
10
205.75896459
20
280.69776557
10
205.75896459
20
281.019291451
10
206.62
20
281.019291451
10
206.62
20
278.710027179
10
206.431989103
20
278.710027179
10
206.431989103
20
278.759073499
10
206.400653954
20
278.970245159
10
206.219455046
20
279.061525811
10
204.05460494
20
279.061525811
10
203.867956442
20
278.949809192
10
203.847520475
20
278.710027179
10
203.655422385
20
278.710027179
10
203.655422385
20
280.056076206
10
203.878855624
20
280.056076206
10
203.877493226
20
279.964795553
10
204.09820167
20
279.6882288
10
206.408828341
20
279.6882288
0
LWPOLYLINE
5
5C
100
AcDbEntity
8
0
6
ByLayer
62
0
370
-1
100
AcDbPolyline
90
18
70
1
43
0
10
205.67177113
20
281.868065282
10
205.835258867
20
281.868065282
10
206.464686651
20
282.231825494
10
206.331171666
20
282.516566635
10
206.023269763
20
282.626920857
10
206.006920989
20
282.671879984
10
206.006920989
20
282.93482276
10
206.03144415
20
282.979781887
10
206.122724803
20
282.987956274
10
206.515095369
20
282.716839112
10
206.62
20
282.197765549
10
206.355694827
20
281.425285996
10
205.568228898
20
281.238637497
10
204.833896483
20
281.463433135
10
204.614550437
20
282.223651108
10
204.818910107
20
282.880326848
10
205.457874676
20
283.061525755
10
205.67177113
20
283.056076164
0
LWPOLYLINE
5
5D
100
AcDbEntity
8
0
6
ByLayer
62
0
370
-1
100
AcDbPolyline
90
6
70
1
43
0
10
205.460599471
20
282.477057099
10
205.342070863
20
282.479781894
10
205.222179856
20
282.481144292
10
204.760327001
20
282.169155196
10
205.248065414
20
281.868065282
10
205.460599471
20
281.868065282
0
LWPOLYLINE
5
5E
100
AcDbEntity
8
0
6
ByLayer
62
0
370
-1
100
AcDbPolyline
90
26
70
1
43
0
10
204.831171687
20
285.798582938
10
204.831171687
20
285.339454879
10
206.228991831
20
285.339454879
10
206.423814717
20
285.448446703
10
206.44016349
20
285.690953512
10
206.62
20
285.690953512
10
206.62
20
284.464795491
10
206.44016349
20
284.464795491
10
206.417002728
20
284.674604752
10
206.237166218
20
284.760435813
10
204.831171687
20
284.760435813
10
204.831171687
20
284.464795491
10
204.621362426
20
284.464795491
10
204.621362426
20
284.761798211
10
203.806648541
20
284.908937174
10
203.481035466
20
285.641907191
10
203.923814752
20
286.20593988
10
204.027356984
20
286.188228709
10
204.05460494
20
286.114659228
10
204.05460494
20
285.820381303
10
203.948337912
20
285.731825446
10
203.750790231
20
285.714114274
10
203.644523202
20
285.547901742
10
204.046430554
20
285.339454879
10
204.621362426
20
285.339454879
10
204.621362426
20
285.798582938
0
LWPOLYLINE
5
5F
100
AcDbEntity
8
0
6
ByLayer
62
0
370
-1
100
AcDbPolyline
90
18
70
1
43
0
10
205.67177113
20
286.489318623
10
205.835258867
20
286.489318623
10
206.464686651
20
286.853078836
10
206.331171666
20
287.137819976
10
206.023269763
20
287.248174198
10
206.006920989
20
287.293133326
10
206.006920989
20
287.556076101
10
206.03144415
20
287.601035229
10
206.122724803
20
287.609209616
10
206.515095369
20
287.338092453
10
206.62
20
286.819018891
10
206.355694827
20
286.046539338
10
205.568228898
20
285.859890839
10
204.833896483
20
286.084686476
10
204.614550437
20
286.844904449
10
204.818910107
20
287.501580189
10
205.457874676
20
287.682779097
10
205.67177113
20
287.677329506
0
LWPOLYLINE
5
60
100
AcDbEntity
8
0
6
ByLayer
62
0
370
-1
100
AcDbPolyline
90
6
70
1
43
0
10
205.460599471
20
287.09831044
10
205.342070863
20
287.101035236
10
205.222179856
20
287.102397633
10
204.760327001
20
286.790408537
10
205.248065414
20
286.489318623
10
205.460599471
20
286.489318623
0
LWPOLYLINE
5
61
100
AcDbEntity
8
0
6
ByLayer
62
0
370
-1
100
AcDbPolyline
90
16
70
1
43
0
10
205.242615823
20
289.523378526
10
204.760327001
20
289.118746379
10
205.076403291
20
288.726375812
10
205.636348788
20
288.675967094
10
206.175858317
20
288.722288619
10
206.476948231
20
289.102397606
10
206.318910086
20
289.42801068
10
205.95106268
20
289.522016128
10
205.95106268
20
289.809482064
10
206.498746596
20
289.809482064
10
206.62
20
288.992043384
10
206.365231611
20
288.25089898
10
205.621362412
20
288.039727321
10
204.614550437
20
289.0438145
10
204.760327001
20
289.809482064
10
205.242615823
20
289.809482064
0
LWPOLYLINE
5
62
100
AcDbEntity
8
0
6
ByLayer
62
0
370
-1
100
AcDbPolyline
90
14
70
1
43
0
10
206.44016349
20
291.218201391
10
206.62
20
291.218201391
10
206.609100818
20
290.632370336
10
206.62
20
290.045176884
10
206.44016349
20
290.045176884
10
206.419727523
20
290.256348543
10
206.241253411
20
290.343542002
10
204.986485036
20
290.343542002
10
204.825722096
20
290.248174156
10
204.802561333
20
290.045176884
10
204.621362426
20
290.045176884
10
204.621362426
20
290.919836272
10
206.102288836
20
290.919836272
10
206.380217987
20
290.951171422
0
LWPOLYLINE
5
63
100
AcDbEntity
8
0
6
ByLayer
62
0
370
-1
100
AcDbPolyline
90
4
70
1
43
0
10
203.907465978
20
290.347629196
10
203.568228925
20
290.643269519
10
203.926539547
20
290.941634637
10
204.242615837
20
290.643269519
0
LWPOLYLINE
5
64
100
AcDbEntity
8
0
6
ByLayer
62
0
370
-1
100
AcDbPolyline
90
16
70
1
43
0
10
204.831171687
20
291.631007924
10
204.831171687
20
291.353078773
10
204.621362426
20
291.353078773
10
204.621362426
20
291.631007924
10
204.096839272
20
291.631007924
10
203.917002763
20
292.207302194
10
204.621362426
20
292.207302194
10
204.621362426
20
292.61874633
10
204.831171687
20
292.61874633
10
204.831171687
20
292.207302194
10
205.981035431
20
292.207302194
10
206.421089921
20
292.471607368
10
206.388392374
20
292.655531071
10
206.543705723
20
292.655531071
10
206.62
20
292.1419071
10
206.100926438
20
291.631007924
0
ENDBLK
5
48
330
46
100
AcDbEntity
8
0
100
AcDbBlockEnd
0
BLOCK
5
4A
330
49
100
AcDbEntity
8
0
100
AcDbBlockBegin
2
POLYGON004
70
0
10
0
20
0
3
POLYGON004
1

0
LINE
5
65
100
AcDbEntity
8
0
6
ByLayer
62
0
370
-1
100
AcDbLine
10
241.011037397
20
270
11
239.210518699
21
266.881410134
0
LINE
5
66
100
AcDbEntity
8
0
6
ByLayer
62
0
370
-1
100
AcDbLine
10
239.210518699
20
266.881410134
11
235.609481301
21
266.881410134
0
LINE
5
67
100
AcDbEntity
8
0
6
ByLayer
62
0
370
-1
100
AcDbLine
10
235.609481301
20
266.881410134
11
233.808962603
21
270
0
LINE
5
68
100
AcDbEntity
8
0
6
ByLayer
62
0
370
-1
100
AcDbLine
10
233.808962603
20
270
11
235.609481301
21
273.118589866
0
LINE
5
69
100
AcDbEntity
8
0
6
ByLayer
62
0
370
-1
100
AcDbLine
10
235.609481301
20
273.118589866
11
239.210518699
21
273.118589866
0
LINE
5
6A
100
AcDbEntity
8
0
6
ByLayer
62
0
370
-1
100
AcDbLine
10
239.210518699
20
273.118589866
11
241.011037397
21
270
0
ENDBLK
5
4B
330
49
100
AcDbEntity
8
0
100
AcDbBlockEnd
0
BLOCK
5
4D
330
4C
100
AcDbEntity
8
0
100
AcDbBlockBegin
2
POLYGON005
70
0
10
0
20
0
3
POLYGON005
1

0
LINE
5
6B
100
AcDbEntity
8
0
6
ByLayer
62
0
370
-1
100
AcDbLine
10
241.011037397
20
300
11
239.210518699
21
296.881410134
0
LINE
5
6C
100
AcDbEntity
8
0
6
ByLayer
62
0
370
-1
100
AcDbLine
10
239.210518699
20
296.881410134
11
235.609481301
21
296.881410134
0
LINE
5
6D
100
AcDbEntity
8
0
6
ByLayer
62
0
370
-1
100
AcDbLine
10
235.609481301
20
296.881410134
11
233.808962603
21
300
0
LINE
5
6E
100
AcDbEntity
8
0
6
ByLayer
62
0
370
-1
100
AcDbLine
10
233.808962603
20
300
11
235.609481301
21
303.118589866
0
LINE
5
6F
100
AcDbEntity
8
0
6
ByLayer
62
0
370
-1
100
AcDbLine
10
235.609481301
20
303.118589866
11
239.210518699
21
303.118589866
0
LINE
5
70
100
AcDbEntity
8
0
6
ByLayer
62
0
370
-1
100
AcDbLine
10
239.210518699
20
303.118589866
11
241.011037397
21
300
0
ENDBLK
5
4E
330
4C
100
AcDbEntity
8
0
100
AcDbBlockEnd
0
BLOCK
5
50
330
4F
100
AcDbEntity
8
0
100
AcDbBlockBegin
2
POLYGON007
70
0
10
0
20
0
3
POLYGON007
1

0
LINE
5
71
100
AcDbEntity
8
0
6
ByLayer
62
0
370
-1
100
AcDbLine
10
164.21
20
300
11
164.072983159
21
299.311169822
0
LINE
5
72
100
AcDbEntity
8
0
6
ByLayer
62
0
370
-1
100
AcDbLine
10
164.072983159
20
299.311169822
11
163.682792206
21
298.727207794
0
LINE
5
73
100
AcDbEntity
8
0
6
ByLayer
62
0
370
-1
100
AcDbLine
10
163.682792206
20
298.727207794
11
163.098830178
21
298.337016841
0
LINE
5
74
100
AcDbEntity
8
0
6
ByLayer
62
0
370
-1
100
AcDbLine
10
163.098830178
20
298.337016841
11
162.41
21
298.2
0
LINE
5
75
100
AcDbEntity
8
0
6
ByLayer
62
0
370
-1
100
AcDbLine
10
162.41
20
298.2
11
161.721169822
21
298.337016841
0
LINE
5
76
100
AcDbEntity
8
0
6
ByLayer
62
0
370
-1
100
AcDbLine
10
161.721169822
20
298.337016841
11
161.137207794
21
298.727207794
0
LINE
5
77
100
AcDbEntity
8
0
6
ByLayer
62
0
370
-1
100
AcDbLine
10
161.137207794
20
298.727207794
11
160.747016841
21
299.311169822
0
LINE
5
78
100
AcDbEntity
8
0
6
ByLayer
62
0
370
-1
100
AcDbLine
10
160.747016841
20
299.311169822
11
160.61
21
300
0
LINE
5
79
100
AcDbEntity
8
0
6
ByLayer
62
0
370
-1
100
AcDbLine
10
160.61
20
300
11
160.747016841
21
300.688830178
0
LINE
5
7A
100
AcDbEntity
8
0
6
ByLayer
62
0
370
-1
100
AcDbLine
10
160.747016841
20
300.688830178
11
161.137207794
21
301.272792206
0
LINE
5
7B
100
AcDbEntity
8
0
6
ByLayer
62
0
370
-1
100
AcDbLine
10
161.137207794
20
301.272792206
11
161.721169822
21
301.662983159
0
LINE
5
7C
100
AcDbEntity
8
0
6
ByLayer
62
0
370
-1
100
AcDbLine
10
161.721169822
20
301.662983159
11
162.41
21
301.8
0
LINE
5
7D
100
AcDbEntity
8
0
6
ByLayer
62
0
370
-1
100
AcDbLine
10
162.41
20
301.8
11
163.098830178
21
301.662983159
0
LINE
5
7E
100
AcDbEntity
8
0
6
ByLayer
62
0
370
-1
100
AcDbLine
10
163.098830178
20
301.662983159
11
163.682792206
21
301.272792206
0
LINE
5
7F
100
AcDbEntity
8
0
6
ByLayer
62
0
370
-1
100
AcDbLine
10
163.682792206
20
301.272792206
11
164.072983159
21
300.688830178
0
LINE
5
80
100
AcDbEntity
8
0
6
ByLayer
62
0
370
-1
100
AcDbLine
10
164.072983159
20
300.688830178
11
164.21
21
300
0
ENDBLK
5
51
330
4F
100
AcDbEntity
8
0
100
AcDbBlockEnd
0
BLOCK
5
53
330
52
100
AcDbEntity
8
0
100
AcDbBlockBegin
2
SHAPESTRING
70
0
10
0
20
0
3
SHAPESTRING
1

0
LWPOLYLINE
5
81
100
AcDbEntity
8
0
6
ByLayer
62
0
370
-1
100
AcDbPolyline
90
23
70
1
43
0
10
147.910272449
20
311.754386891
10
147.594196159
20
311.754386891
10
147.047874641
20
312.367465901
10
146.654141676
20
312.251662088
10
146.496103531
20
311.88517708
10
146.903460474
20
311.450572181
10
147.65550406
20
311.208065372
10
148.061498605
20
310.513242494
10
147.677302425
20
309.777547681
10
146.827166197
20
309.58
10
145.884386919
20
309.721689371
10
145.884386919
20
310.445122604
10
146.219536778
20
310.445122604
10
146.361226149
20
309.919237052
10
146.859863744
20
309.735313349
10
147.269945482
20
309.875640323
10
147.437520412
20
310.269373287
10
147.035613061
20
310.755749302
10
146.287656668
20
311.006430498
10
145.884386919
20
311.690354194
10
146.25495912
20
312.353841923
10
147.031525867
20
312.544577615
10
147.910272449
20
312.408337835
0
LWPOLYLINE
5
82
100
AcDbEntity
8
0
6
ByLayer
62
0
370
-1
100
AcDbPolyline
90
24
70
1
43
0
10
149.610544905
20
309.770735692
10
148.979754723
20
309.58
10
148.556049007
20
309.735313349
10
148.412997237
20
310.154931872
10
148.674577615
20
310.644032683
10
149.249509487
20
310.739400529
10
149.425258804
20
310.736675733
10
149.590108938
20
310.735313335
10
149.602370518
20
311.041852841
10
149.327166162
20
311.431498612
10
149.090108945
20
311.312970003
10
149.049237011
20
311.092261559
10
148.95659396
20
310.973732951
10
148.665040831
20
310.973732951
10
148.57239778
20
311.101798344
10
149.348964527
20
311.585449563
10
150.046512201
20
311.378365097
10
150.199100755
20
310.806158021
10
150.181389583
20
310.375640316
10
150.162316014
20
309.871553129
10
150.276757429
20
309.758474112
10
150.463405928
20
309.757111714
10
150.463405928
20
309.58
10
149.610544905
20
309.58
0
LWPOLYLINE
5
83
100
AcDbEntity
8
0
6
ByLayer
62
0
370
-1
100
AcDbPolyline
90
6
70
1
43
0
10
149.590108938
20
310.555476826
10
149.438882782
20
310.555476826
10
149.106457718
20
310.439673013
10
149.021989055
20
310.092261573
10
149.283569432
20
309.819782013
10
149.590108938
20
310.178092635
0
LWPOLYLINE
5
84
100
AcDbEntity
8
0
6
ByLayer
62
0
370
-1
100
AcDbPolyline
90
19
70
1
43
0
10
152.130980837
20
309.791171659
10
152.576484918
20
309.957384191
10
152.66776557
20
310.44103541
10
152.989291451
20
310.44103541
10
152.989291451
20
309.58
10
150.680027179
20
309.58
10
150.680027179
20
309.768010897
10
150.729073499
20
309.768010897
10
150.940245159
20
309.799346046
10
151.031525811
20
309.980544954
10
151.031525811
20
312.14539506
10
150.919809192
20
312.332043558
10
150.680027179
20
312.352479525
10
150.680027179
20
312.544577615
10
152.026076206
20
312.544577615
10
152.026076206
20
312.321144376
10
151.934795553
20
312.322506774
10
151.6582288
20
312.10179833
10
151.6582288
20
309.791171659
0
LWPOLYLINE
5
85
100
AcDbEntity
8
0
6
ByLayer
62
0
370
-1
100
AcDbPolyline
90
18
70
1
43
0
10
153.838065282
20
310.52822887
10
153.838065282
20
310.364741133
10
154.201825494
20
309.735313349
10
154.486566635
20
309.868828334
10
154.596920857
20
310.176730237
10
154.641879984
20
310.193079011
10
154.90482276
20
310.193079011
10
154.949781887
20
310.16855585
10
154.957956274
20
310.077275197
10
154.686839112
20
309.684904631
10
154.167765549
20
309.58
10
153.395285996
20
309.844305173
10
153.208637497
20
310.631771102
10
153.433433135
20
311.366103517
10
154.193651108
20
311.585449563
10
154.850326848
20
311.381089893
10
155.031525755
20
310.742125324
10
155.026076164
20
310.52822887
0
LWPOLYLINE
5
86
100
AcDbEntity
8
0
6
ByLayer
62
0
370
-1
100
AcDbPolyline
90
6
70
1
43
0
10
154.447057099
20
310.739400529
10
154.449781894
20
310.857929137
10
154.451144292
20
310.977820144
10
154.139155196
20
311.439672999
10
153.838065282
20
310.951934586
10
153.838065282
20
310.739400529
0
LWPOLYLINE
5
87
100
AcDbEntity
8
0
6
ByLayer
62
0
370
-1
100
AcDbPolyline
90
26
70
1
43
0
10
157.768582938
20
311.368828313
10
157.309454879
20
311.368828313
10
157.309454879
20
309.971008169
10
157.418446703
20
309.776185283
10
157.660953512
20
309.75983651
10
157.660953512
20
309.58
10
156.434795491
20
309.58
10
156.434795491
20
309.75983651
10
156.644604752
20
309.782997272
10
156.730435813
20
309.962833782
10
156.730435813
20
311.368828313
10
156.434795491
20
311.368828313
10
156.434795491
20
311.578637574
10
156.731798211
20
311.578637574
10
156.878937174
20
312.393351459
10
157.611907191
20
312.718964534
10
158.17593988
20
312.276185248
10
158.158228709
20
312.172643016
10
158.084659228
20
312.14539506
10
157.790381303
20
312.14539506
10
157.701825446
20
312.251662088
10
157.684114274
20
312.449209769
10
157.517901742
20
312.555476798
10
157.309454879
20
312.153569446
10
157.309454879
20
311.578637574
10
157.768582938
20
311.578637574
0
LWPOLYLINE
5
88
100
AcDbEntity
8
0
6
ByLayer
62
0
370
-1
100
AcDbPolyline
90
18
70
1
43
0
10
158.459318623
20
310.52822887
10
158.459318623
20
310.364741133
10
158.823078836
20
309.735313349
10
159.107819976
20
309.868828334
10
159.218174198
20
310.176730237
10
159.263133326
20
310.193079011
10
159.526076101
20
310.193079011
10
159.571035229
20
310.16855585
10
159.579209616
20
310.077275197
10
159.308092453
20
309.684904631
10
158.789018891
20
309.58
10
158.016539338
20
309.844305173
10
157.829890839
20
310.631771102
10
158.054686476
20
311.366103517
10
158.814904449
20
311.585449563
10
159.471580189
20
311.381089893
10
159.652779097
20
310.742125324
10
159.647329506
20
310.52822887
0
LWPOLYLINE
5
89
100
AcDbEntity
8
0
6
ByLayer
62
0
370
-1
100
AcDbPolyline
90
6
70
1
43
0
10
159.06831044
20
310.739400529
10
159.071035236
20
310.857929137
10
159.072397633
20
310.977820144
10
158.760408537
20
311.439672999
10
158.459318623
20
310.951934586
10
158.459318623
20
310.739400529
0
LWPOLYLINE
5
8A
100
AcDbEntity
8
0
6
ByLayer
62
0
370
-1
100
AcDbPolyline
90
16
70
1
43
0
10
161.493378526
20
310.957384177
10
161.088746379
20
311.439672999
10
160.696375812
20
311.123596709
10
160.645967094
20
310.563651212
10
160.692288619
20
310.024141683
10
161.072397606
20
309.723051769
10
161.39801068
20
309.881089914
10
161.492016128
20
310.24893732
10
161.779482064
20
310.24893732
10
161.779482064
20
309.701253404
10
160.962043384
20
309.58
10
160.22089898
20
309.834768389
10
160.009727321
20
310.578637588
10
161.0138145
20
311.585449563
10
161.779482064
20
311.439672999
10
161.779482064
20
310.957384177
0
LWPOLYLINE
5
8B
100
AcDbEntity
8
0
6
ByLayer
62
0
370
-1
100
AcDbPolyline
90
14
70
1
43
0
10
163.188201391
20
309.75983651
10
163.188201391
20
309.58
10
162.602370336
20
309.590899182
10
162.015176884
20
309.58
10
162.015176884
20
309.75983651
10
162.226348543
20
309.780272477
10
162.313542002
20
309.958746589
10
162.313542002
20
311.213514964
10
162.218174156
20
311.374277904
10
162.015176884
20
311.397438667
10
162.015176884
20
311.578637574
10
162.889836272
20
311.578637574
10
162.889836272
20
310.097711164
10
162.921171422
20
309.819782013
0
LWPOLYLINE
5
8C
100
AcDbEntity
8
0
6
ByLayer
62
0
370
-1
100
AcDbPolyline
90
4
70
1
43
0
10
162.317629196
20
312.292534022
10
162.613269519
20
312.631771075
10
162.911634637
20
312.273460453
10
162.613269519
20
311.957384163
0
LWPOLYLINE
5
8D
100
AcDbEntity
8
0
6
ByLayer
62
0
370
-1
100
AcDbPolyline
90
16
70
1
43
0
10
163.601007924
20
311.368828313
10
163.323078773
20
311.368828313
10
163.323078773
20
311.578637574
10
163.601007924
20
311.578637574
10
163.601007924
20
312.103160728
10
164.177302194
20
312.282997237
10
164.177302194
20
311.578637574
10
164.58874633
20
311.578637574
10
164.58874633
20
311.368828313
10
164.177302194
20
311.368828313
10
164.177302194
20
310.218964569
10
164.441607368
20
309.778910079
10
164.625531071
20
309.811607626
10
164.625531071
20
309.656294277
10
164.1119071
20
309.58
10
163.601007924
20
310.099073562
0
LWPOLYLINE
5
8E
100
AcDbEntity
8
0
6
ByLayer
62
0
370
-1
100
AcDbPolyline
90
4
70
1
43
0
10
166.02607601
20
310.277547674
10
166.02607601
20
310.80070843
10
167.080571909
20
310.80070843
10
167.080571909
20
310.277547674
0
LWPOLYLINE
5
8F
100
AcDbEntity
8
0
6
ByLayer
62
0
370
-1
100
AcDbPolyline
90
20
70
1
43
0
10
168.641879789
20
310.058201628
10
169.827165876
20
311.650844658
10
169.528800757
20
312.093623943
10
169.271307573
20
311.926049014
10
169.245422015
20
311.611335121
10
169.081934278
20
311.443760192
10
168.838065072
20
311.443760192
10
168.709999679
20
311.622234304
10
168.992016024
20
312.135858275
10
169.584659067
20
312.282997237
10
170.192288486
20
312.165831027
10
170.463405649
20
311.646757464
10
170.348964233
20
311.213514964
10
170.031525546
20
310.891989082
10
169.038337549
20
310.101798358
10
170.027438352
20
310.101798358
10
170.304005106
20
310.495531322
10
170.492016003
20
310.495531322
10
170.492016003
20
309.58
10
168.641879789
20
309.58
0
LWPOLYLINE
5
90
100
AcDbEntity
8
0
6
ByLayer
62
0
370
-1
100
AcDbPolyline
90
8
70
1
43
0
10
170.90890973
20
310.98054494
10
171.091471035
20
311.900163455
10
171.908909716
20
312.282997237
10
172.746784363
20
311.863378715
10
172.907547304
20
310.89335148
10
172.73043559
20
309.966920976
10
171.908909716
20
309.58
10
171.068310272
20
310.006430512
0
LWPOLYLINE
5
91
100
AcDbEntity
8
0
6
ByLayer
62
0
370
-1
100
AcDbPolyline
90
8
70
1
43
0
10
171.528800729
20
310.765286087
10
171.908909716
20
309.735313349
10
172.293105896
20
310.781634861
10
172.2903811
20
310.960108973
10
172.289018702
20
311.094986355
10
171.908909716
20
312.085449556
10
171.524713536
20
311.067738399
10
171.526075934
20
310.896076276
0
LWPOLYLINE
5
92
100
AcDbEntity
8
0
6
ByLayer
62
0
370
-1
100
AcDbPolyline
90
14
70
1
43
0
10
174.654141285
20
312.195803778
10
174.654141285
20
310.086811982
10
174.783569076
20
309.793896455
10
175.124168526
20
309.765286101
10
175.124168526
20
309.58
10
173.521988712
20
309.58
10
173.521988712
20
309.768010897
10
173.779481897
20
309.78435967
10
173.990653556
20
309.856566754
10
174.077847015
20
310.093623971
10
174.077847015
20
311.844305145
10
173.350326589
20
311.451934579
10
173.350326589
20
311.724414139
10
174.195013226
20
312.195803778
0
LWPOLYLINE
5
93
100
AcDbEntity
8
0
6
ByLayer
62
0
370
-1
100
AcDbPolyline
90
15
70
1
43
0
10
176.592833356
20
311.560926403
10
176.490653521
20
311.695803785
10
176.434795211
20
311.946484981
10
176.173214833
20
312.081362363
10
175.817629007
20
311.398801065
10
175.823078598
20
311.152207063
10
176.304005022
20
311.288446843
10
177.114631714
20
310.530953665
10
176.152778866
20
309.58
10
175.353051357
20
309.930136235
10
175.181389234
20
310.817057203
10
175.314904219
20
311.821144383
10
176.148691673
20
312.282997237
10
176.998827901
20
311.688991796
10
176.891198474
20
311.560926403
0
LWPOLYLINE
5
94
100
AcDbEntity
8
0
6
ByLayer
62
0
370
-1
100
AcDbPolyline
90
6
70
1
43
0
10
176.165040446
20
309.727138963
10
176.479754339
20
310.318419608
10
176.479754339
20
310.522779278
10
176.132342899
20
311.094986355
10
175.821716201
20
310.485994538
10
175.857138543
20
310.011880103
0
ENDBLK
5
54
330
52
100
AcDbEntity
8
0
100
AcDbBlockEnd
0
BLOCK
5
56
330
55
100
AcDbEntity
8
0
100
AcDbBlockBegin
2
SHAPESTRING001
70
0
10
0
20
0
3
SHAPESTRING001
1

0
LWPOLYLINE
5
95
100
AcDbEntity
8
0
6
ByLayer
62
0
370
-1
100
AcDbPolyline
90
8
70
1
43
0
10
135.797193459
20
307.063651205
10
136.147329694
20
308.179455005
10
137.268583084
20
308.544577615
10
138.39256127
20
308.179455005
10
138.742697505
20
307.063651205
10
138.396648464
20
305.943760213
10
137.268583084
20
305.58
10
136.147329694
20
305.947847406
0
LWPOLYLINE
5
96
100
AcDbEntity
8
0
6
ByLayer
62
0
370
-1
100
AcDbPolyline
90
8
70
1
43
0
10
138.047874627
20
307.103160742
10
137.933433211
20
307.946484981
10
137.269945482
20
308.371553095
10
136.591471377
20
307.908337842
10
136.49065394
20
307.014604885
10
136.609182549
20
306.16855585
10
137.269945482
20
305.739400543
10
137.948419587
20
306.205340591
0
LWPOLYLINE
5
97
100
AcDbEntity
8
0
6
ByLayer
62
0
370
-1
100
AcDbPolyline
90
23
70
1
43
0
10
141.136430442
20
307.754386891
10
140.820354152
20
307.754386891
10
140.274032634
20
308.367465901
10
139.880299669
20
308.251662088
10
139.722261524
20
307.88517708
10
140.129618467
20
307.450572181
10
140.881662053
20
307.208065372
10
141.287656598
20
306.513242494
10
140.903460418
20
305.777547681
10
140.05332419
20
305.58
10
139.110544912
20
305.721689371
10
139.110544912
20
306.445122604
10
139.445694771
20
306.445122604
10
139.587384142
20
305.919237052
10
140.086021737
20
305.735313349
10
140.496103475
20
305.875640323
10
140.663678405
20
306.269373287
10
140.261771054
20
306.755749302
10
139.513814661
20
307.006430498
10
139.110544912
20
307.690354194
10
139.481117114
20
308.353841923
10
140.25768386
20
308.544577615
10
141.136430442
20
308.408337835
0
LWPOLYLINE
5
98
100
AcDbEntity
8
0
6
ByLayer
62
0
370
-1
100
AcDbPolyline
90
32
70
1
43
0
10
141.919809178
20
308.14539506
10
141.799918171
20
308.333405956
10
141.551961771
20
308.353841923
10
141.551961771
20
308.544577615
10
142.914359572
20
308.544577615
10
142.914359572
20
308.321144376
10
142.824441318
20
308.322506774
10
142.546512166
20
308.10179833
10
142.546512166
20
307.165831041
10
143.081934502
20
307.727138935
10
143.493378638
20
308.33068116
10
143.421171554
20
308.352479525
10
143.421171554
20
308.544577615
10
144.312179716
20
308.544577615
10
144.312179716
20
308.352479525
10
143.801280541
20
308.186266994
10
143.400735587
20
307.802070814
10
143.056048944
20
307.372915506
10
143.993378631
20
306.078637595
10
144.175939936
20
305.847029969
10
144.455231485
20
305.75983651
10
144.455231485
20
305.58
10
143.554686539
20
305.58
10
142.546512166
20
306.98054494
10
142.546512166
20
305.991444136
10
142.660953581
20
305.787084466
10
142.914359572
20
305.768010897
10
142.914359572
20
305.58
10
141.551961771
20
305.58
10
141.551961771
20
305.770735692
10
141.804005364
20
305.788446864
10
141.919809178
20
305.984632147
0
LWPOLYLINE
5
99
100
AcDbEntity
8
0
6
ByLayer
62
0
370
-1
100
AcDbPolyline
90
32
70
1
43
0
10
146.39801075
20
306.000980921
10
146.42253391
20
305.844305173
10
146.42253391
20
305.845667571
10
146.828528455
20
305.768010897
10
146.828528455
20
305.58
10
146.084659256
20
305.588174387
10
145.339427658
20
305.58
10
145.339427658
20
305.768010897
10
145.523351362
20
305.766648499
10
145.739972612
20
305.851117162
10
145.769945364
20
306.105885551
10
145.769945364
20
306.699890993
10
145.572397682
20
307.228501339
10
145.111907226
20
307.945122583
10
144.603732846
20
308.357929117
10
144.603732846
20
308.544577615
10
146.021988957
20
308.544577615
10
146.021988957
20
308.347029934
10
145.825803673
20
308.315694785
10
145.711362258
20
308.174005413
10
145.966130647
20
307.702615774
10
146.280844539
20
307.18490461
10
146.791743714
20
308.217602143
10
146.767220554
20
308.288446829
10
146.718174233
20
308.329318763
10
146.501552983
20
308.356566719
10
146.501552983
20
308.544577615
10
147.493378582
20
308.544577615
10
147.493378582
20
308.357929117
10
147.023351341
20
308.009155279
10
146.59010884
20
307.375640302
10
146.39801075
20
306.93694821
0
LWPOLYLINE
5
9A
100
AcDbEntity
8
0
6
ByLayer
62
0
370
-1
100
AcDbPolyline
90
4
70
1
43
0
10
148.87621235
20
306.277547674
10
148.87621235
20
306.80070843
10
149.930708248
20
306.80070843
10
149.930708248
20
306.277547674
0
LWPOLYLINE
5
9B
100
AcDbEntity
8
0
6
ByLayer
62
0
370
-1
100
AcDbPolyline
90
20
70
1
43
0
10
151.814904407
20
305.768010897
10
151.996103315
20
305.763923703
10
152.245422112
20
305.999618523
10
152.245422112
20
308.300708409
10
152.073759989
20
308.300708409
10
151.648691875
20
308.174005413
10
151.550599234
20
307.72986373
10
151.23043575
20
307.72986373
10
151.23043575
20
308.544577615
10
153.891198656
20
308.544577615
10
153.891198656
20
307.72986373
10
153.571035173
20
307.72986373
10
153.408909834
20
308.236675712
10
152.873487499
20
308.300708409
10
152.873487499
20
305.983269749
10
153.017901666
20
305.780272477
10
153.304005204
20
305.768010897
10
153.304005204
20
305.58
10
152.560136004
20
305.588174387
10
151.814904407
20
305.58
0
LWPOLYLINE
5
9C
100
AcDbEntity
8
0
6
ByLayer
62
0
370
-1
100
AcDbPolyline
90
18
70
1
43
0
10
154.126893476
20
306.52822887
10
154.126893476
20
306.364741133
10
154.490653689
20
305.735313349
10
154.775394829
20
305.868828334
10
154.885749051
20
306.176730237
10
154.930708178
20
306.193079011
10
155.193650954
20
306.193079011
10
155.238610081
20
306.16855585
10
155.246784468
20
306.077275197
10
154.975667306
20
305.684904631
10
154.456593744
20
305.58
10
153.68411419
20
305.844305173
10
153.497465692
20
306.631771102
10
153.722261329
20
307.366103517
10
154.482479302
20
307.585449563
10
155.139155042
20
307.381089893
10
155.320353949
20
306.742125324
10
155.314904358
20
306.52822887
0
LWPOLYLINE
5
9D
100
AcDbEntity
8
0
6
ByLayer
62
0
370
-1
100
AcDbPolyline
90
6
70
1
43
0
10
154.735885293
20
306.739400529
10
154.738610088
20
306.857929137
10
154.739972486
20
306.977820144
10
154.42798339
20
307.439672999
10
154.126893476
20
306.951934586
10
154.126893476
20
306.739400529
0
LWPOLYLINE
5
9E
100
AcDbEntity
8
0
6
ByLayer
62
0
370
-1
100
AcDbPolyline
90
14
70
1
43
0
10
156.763133221
20
305.758474112
10
156.763133221
20
305.58
10
156.177302166
20
305.590899182
10
155.590108714
20
305.58
10
155.590108714
20
305.758474112
10
155.802642771
20
305.781634875
10
155.888473833
20
305.960108987
10
155.888473833
20
308.359291514
10
155.79719318
20
308.525504046
10
155.590108714
20
308.545940013
10
155.590108714
20
308.718964534
10
156.464768102
20
308.718964534
10
156.464768102
20
306.000980921
10
156.524713606
20
305.789809261
0
LWPOLYLINE
5
9F
100
AcDbEntity
8
0
6
ByLayer
62
0
370
-1
100
AcDbPolyline
90
24
70
1
43
0
10
158.269945189
20
305.770735692
10
157.639155007
20
305.58
10
157.215449291
20
305.735313349
10
157.072397522
20
306.154931872
10
157.3339779
20
306.644032683
10
157.908909772
20
306.739400529
10
158.084659088
20
306.736675733
10
158.249509222
20
306.735313335
10
158.261770802
20
307.041852841
10
157.986566446
20
307.431498612
10
157.749509229
20
307.312970003
10
157.708637295
20
307.092261559
10
157.615994244
20
306.973732951
10
157.324441115
20
306.973732951
10
157.231798064
20
307.101798344
10
158.008364811
20
307.585449563
10
158.705912485
20
307.378365097
10
158.858501039
20
306.806158021
10
158.840789868
20
306.375640316
10
158.821716298
20
305.871553129
10
158.936157714
20
305.758474112
10
159.122806212
20
305.757111714
10
159.122806212
20
305.58
10
158.269945189
20
305.58
0
LWPOLYLINE
5
A0
100
AcDbEntity
8
0
6
ByLayer
62
0
370
-1
100
AcDbPolyline
90
6
70
1
43
0
10
158.249509222
20
306.555476826
10
158.098283066
20
306.555476826
10
157.765858003
20
306.439673013
10
157.681389339
20
306.092261573
10
157.942969717
20
305.819782013
10
158.249509222
20
306.178092635
0
LWPOLYLINE
5
A1
100
AcDbEntity
8
0
6
ByLayer
62
0
370
-1
100
AcDbPolyline
90
14
70
1
43
0
10
160.51245197
20
305.75983651
10
160.51245197
20
305.58
10
159.926620915
20
305.590899182
10
159.339427463
20
305.58
10
159.339427463
20
305.75983651
10
159.550599122
20
305.780272477
10
159.637792581
20
305.958746589
10
159.637792581
20
307.213514964
10
159.542424735
20
307.374277904
10
159.339427463
20
307.397438667
10
159.339427463
20
307.578637574
10
160.214086851
20
307.578637574
10
160.214086851
20
306.097711164
10
160.245422001
20
305.819782013
0
LWPOLYLINE
5
A2
100
AcDbEntity
8
0
6
ByLayer
62
0
370
-1
100
AcDbPolyline
90
4
70
1
43
0
10
159.641879775
20
308.292534022
10
159.937520098
20
308.631771075
10
160.235885216
20
308.273460453
10
159.937520098
20
307.957384163
0
LWPOLYLINE
5
A3
100
AcDbEntity
8
0
6
ByLayer
62
0
370
-1
100
AcDbPolyline
90
8
70
1
43
0
10
162.816266651
20
306.537765654
10
162.577847036
20
305.807520433
10
161.821716256
20
305.58
10
161.049236703
20
305.821144411
10
160.82171627
20
306.581362384
10
161.050599101
20
307.338855561
10
161.821716256
20
307.585449563
10
162.602370197
20
307.322506788
0
LWPOLYLINE
5
A4
100
AcDbEntity
8
0
6
ByLayer
62
0
370
-1
100
AcDbPolyline
90
7
70
1
43
0
10
161.449781657
20
306.806158021
10
161.449781657
20
306.436948217
10
161.498827978
20
305.983269749
10
161.821716256
20
305.727138963
10
162.193650856
20
306.436948217
10
162.193650856
20
306.806158021
10
161.821716256
20
307.435585805
0
LWPOLYLINE
5
A5
100
AcDbEntity
8
0
6
ByLayer
62
0
370
-1
100
AcDbPolyline
90
17
70
1
43
0
10
165.727710752
20
305.800708444
10
165.163678063
20
305.58
10
164.309454641
20
306.513242494
10
165.125530924
20
307.585449563
10
165.703187592
20
307.406975451
10
165.703187592
20
308.352479525
10
165.615994133
20
308.526866444
10
165.404822473
20
308.547302411
10
165.404822473
20
308.718964534
10
166.279481862
20
308.718964534
10
166.278119464
20
305.995531329
10
166.332615376
20
305.800708444
10
166.331252978
20
305.800708444
10
166.581934174
20
305.75983651
10
166.581934174
20
305.58
10
166.155503662
20
305.590899182
10
165.727710752
20
305.58
0
LWPOLYLINE
5
A6
100
AcDbEntity
8
0
6
ByLayer
62
0
370
-1
100
AcDbPolyline
90
10
70
1
43
0
10
165.699100398
20
306.898801071
10
165.621443724
20
307.239400522
10
165.339427379
20
307.411062645
10
165.000190327
20
307.17264303
10
164.949781608
20
306.723051755
10
164.949781608
20
306.466920969
10
164.998827929
20
306.024141683
10
165.317629014
20
305.778910079
10
165.611906939
20
305.934223428
10
165.699100398
20
306.269373287
0
LWPOLYLINE
5
A7
100
AcDbEntity
8
0
6
ByLayer
62
0
370
-1
100
AcDbPolyline
90
14
70
1
43
0
10
167.923896008
20
305.75983651
10
167.923896008
20
305.58
10
167.338064953
20
305.590899182
10
166.750871501
20
305.58
10
166.750871501
20
305.75983651
10
166.96204316
20
305.780272477
10
167.049236619
20
305.958746589
10
167.049236619
20
307.213514964
10
166.953868773
20
307.374277904
10
166.750871501
20
307.397438667
10
166.750871501
20
307.578637574
10
167.625530889
20
307.578637574
10
167.625530889
20
306.097711164
10
167.656866039
20
305.819782013
0
LWPOLYLINE
5
A8
100
AcDbEntity
8
0
6
ByLayer
62
0
370
-1
100
AcDbPolyline
90
4
70
1
43
0
10
167.053323813
20
308.292534022
10
167.348964136
20
308.631771075
10
167.647329254
20
308.273460453
10
167.348964136
20
307.957384163
0
LWPOLYLINE
5
A9
100
AcDbEntity
8
0
6
ByLayer
62
0
370
-1
100
AcDbPolyline
90
21
70
1
43
0
10
169.654141215
20
306.990081724
10
169.380299257
20
306.990081724
10
169.312179367
20
307.315694799
10
169.016539044
20
307.439672999
10
168.69092597
20
307.169918234
10
168.96340553
20
306.89335148
10
169.47157991
20
306.710790175
10
169.745421868
20
306.210790182
10
169.492015877
20
305.723051769
10
168.932070381
20
305.58
10
168.145966849
20
305.657656675
10
168.145966849
20
306.217602171
10
168.444331968
20
306.217602171
10
168.516539051
20
305.868828334
10
168.820353761
20
305.718964576
10
169.200462747
20
306.040490457
10
168.929345585
20
306.300708437
10
168.419808807
20
306.477820151
10
168.145966849
20
306.931498619
10
169.039699807
20
307.585449563
10
169.654141215
20
307.5009809
0
LWPOLYLINE
5
AA
100
AcDbEntity
8
0
6
ByLayer
62
0
370
-1
100
AcDbPolyline
90
18
70
1
43
0
10
170.843514496
20
307.372915506
10
171.470217484
20
307.585449563
10
172.246784231
20
306.603160749
10
171.436157539
20
305.58
10
170.876212043
20
305.727138963
10
170.876212043
20
304.919237066
10
170.98929106
20
304.735313363
10
171.223623482
20
304.714877396
10
171.223623482
20
304.533678489
10
169.977029494
20
304.533678489
10
169.977029494
20
304.714877396
10
170.205912325
20
304.735313363
10
170.297192977
20
304.916512271
10
170.297192977
20
307.220326953
10
170.199100336
20
307.40152586
10
169.977029494
20
307.421961827
10
169.977029494
20
307.585449563
10
170.843514496
20
307.585449563
0
LWPOLYLINE
5
AB
100
AcDbEntity
8
0
6
ByLayer
62
0
370
-1
100
AcDbPolyline
90
7
70
1
43
0
10
171.620081242
20
306.743487722
10
171.244059449
20
307.38926428
10
170.869400054
20
306.653569467
10
170.900735203
20
306.097711164
10
171.244059449
20
305.751662123
10
171.564222932
20
305.975095362
10
171.620081242
20
306.400163476
0
LWPOLYLINE
5
AC
100
AcDbEntity
8
0
6
ByLayer
62
0
370
-1
100
AcDbPolyline
90
14
70
1
43
0
10
173.67866432
20
305.758474112
10
173.67866432
20
305.58
10
173.092833265
20
305.590899182
10
172.505639813
20
305.58
10
172.505639813
20
305.758474112
10
172.71817387
20
305.781634875
10
172.804004931
20
305.960108987
10
172.804004931
20
308.359291514
10
172.712724279
20
308.525504046
10
172.505639813
20
308.545940013
10
172.505639813
20
308.718964534
10
173.380299201
20
308.718964534
10
173.380299201
20
306.000980921
10
173.440244705
20
305.789809261
0
LWPOLYLINE
5
AD
100
AcDbEntity
8
0
6
ByLayer
62
0
370
-1
100
AcDbPolyline
90
24
70
1
43
0
10
175.185476288
20
305.770735692
10
174.554686106
20
305.58
10
174.13098039
20
305.735313349
10
173.987928621
20
306.154931872
10
174.249508998
20
306.644032683
10
174.82444087
20
306.739400529
10
175.000190187
20
306.736675733
10
175.165040321
20
306.735313335
10
175.177301901
20
307.041852841
10
174.902097545
20
307.431498612
10
174.665040328
20
307.312970003
10
174.624168394
20
307.092261559
10
174.531525343
20
306.973732951
10
174.239972214
20
306.973732951
10
174.147329163
20
307.101798344
10
174.92389591
20
307.585449563
10
175.621443584
20
307.378365097
10
175.774032138
20
306.806158021
10
175.756320966
20
306.375640316
10
175.737247397
20
305.871553129
10
175.851688813
20
305.758474112
10
176.038337311
20
305.757111714
10
176.038337311
20
305.58
10
175.185476288
20
305.58
0
LWPOLYLINE
5
AE
100
AcDbEntity
8
0
6
ByLayer
62
0
370
-1
100
AcDbPolyline
90
6
70
1
43
0
10
175.165040321
20
306.555476826
10
175.013814165
20
306.555476826
10
174.681389101
20
306.439673013
10
174.596920438
20
306.092261573
10
174.858500815
20
305.819782013
10
175.165040321
20
306.178092635
0
LWPOLYLINE
5
AF
100
AcDbEntity
8
0
6
ByLayer
62
0
370
-1
100
AcDbPolyline
90
29
70
1
43
0
10
176.167765102
20
307.41378744
10
176.167765102
20
307.58136237
10
176.752233759
20
307.585449563
10
177.336702416
20
307.58136237
10
177.336702416
20
307.41378744
10
177.08602122
20
307.317057196
10
177.245421763
20
306.72032696
10
177.486566174
20
306.119509529
10
177.82989042
20
307.306158014
10
177.806729657
20
307.366103517
10
177.573759633
20
307.41378744
10
177.573759633
20
307.58136237
10
177.997465349
20
307.585449563
10
178.415721474
20
307.58136237
10
178.415721474
20
307.41378744
10
177.823078431
20
306.616784727
10
177.369399963
20
305.255749323
10
176.566947658
20
304.533678489
10
176.347601612
20
304.620871948
10
176.252233766
20
304.829318812
10
176.309454474
20
304.99144415
10
176.455231038
20
305.062288836
10
176.655503515
20
304.968283387
10
176.827165638
20
304.874277939
10
177.109181983
20
305.167193466
10
177.274032117
20
305.588174387
10
177.075122038
20
305.588174387
10
176.494740575
20
307.142670278
10
176.388473546
20
307.348392346
0
LWPOLYLINE
5
B0
100
AcDbEntity
8
0
6
ByLayer
62
0
370
-1
100
AcDbPolyline
90
4
70
1
43
0
10
179.829890392
20
306.277547674
10
179.829890392
20
306.80070843
10
180.88438629
20
306.80070843
10
180.88438629
20
306.277547674
0
LWPOLYLINE
5
B1
100
AcDbEntity
8
0
6
ByLayer
62
0
370
-1
100
AcDbPolyline
90
23
70
1
43
0
10
183.121443479
20
307.356566733
10
183.594195516
20
307.585449563
10
184.000190061
20
307.203978179
10
183.956593331
20
307.02959126
10
183.782206413
20
306.981907337
10
183.569672356
20
307.074550388
10
183.541062002
20
307.243487715
10
183.40618462
20
307.336130766
10
183.141879446
20
306.834768375
10
183.141879446
20
305.971008169
10
183.246784077
20
305.778910079
10
183.485203692
20
305.75983651
10
183.485203692
20
305.58
10
182.271307251
20
305.58
10
182.271307251
20
305.75983651
10
182.481116513
20
305.781634875
10
182.566947574
20
305.961471384
10
182.566947574
20
307.208065372
10
182.479754115
20
307.383814689
10
182.271307251
20
307.409700247
10
182.271307251
20
307.58136237
10
182.760408062
20
307.585449563
10
183.121443479
20
307.58136237
0
LWPOLYLINE
5
B2
100
AcDbEntity
8
0
6
ByLayer
62
0
370
-1
100
AcDbPolyline
90
28
70
1
43
0
10
185.090108302
20
307.090899161
10
185.453868515
20
307.650844658
10
185.135067429
20
308.08953675
10
184.881661438
20
307.938310594
10
184.832615118
20
307.654931851
10
184.671852177
20
307.503705695
10
184.452506131
20
307.503705695
10
184.320353544
20
307.657656647
10
184.568309944
20
308.146757457
10
185.11599386
20
308.282997237
10
186.086021095
20
307.612697519
10
185.595557886
20
307.026866465
10
185.595557886
20
307.022779271
10
186.00836442
20
306.796621236
10
186.126893029
20
306.345667564
10
185.178664159
20
305.58
10
184.276756815
20
306.184904624
10
184.427982971
20
306.352479553
10
184.636429834
20
306.352479553
10
184.806729559
20
306.188991817
10
184.863950267
20
305.886539505
10
185.126893043
20
305.723051769
10
185.433432548
20
305.943760213
10
185.482478869
20
306.356566747
10
185.368037453
20
306.784359656
10
185.032887594
20
306.887901889
10
184.78765599
20
306.871553115
10
184.78765599
20
307.104523139
0
ENDBLK
5
57
330
55
100
AcDbEntity
8
0
100
AcDbBlockEnd
0
ENDSEC
0
SECTION
2
ENTITIES
0
LWPOLYLINE
5
B3
100
AcDbEntity
8
0
6
ByLayer
62
0
370
-1
100
AcDbPolyline
90
2
70
0
43
0
10
48.9767662032
20
233.801459141
10
-24.2232337968
20
233.801459141
0
LWPOLYLINE
5
B4
100
AcDbEntity
8
0
6
ByLayer
62
0
370
-1
100
AcDbPolyline
90
2
70
0
43
0
10
-24.2132337968
20
233.811459141
10
-24.2090431228
20
201.10979918
0
LWPOLYLINE
5
B5
100
AcDbEntity
8
0
6
ByLayer
62
0
370
-1
100
AcDbPolyline
90
2
70
0
43
0
10
48.9367662032
20
233.811459141
10
48.9326652512
20
208.489468348
0
LWPOLYLINE
5
B6
100
AcDbEntity
8
0
6
ByLayer
62
0
370
-1
100
AcDbPolyline
90
2
70
0
43
0
10
48.9326652512
20
208.489468348
10
32.8403038012
20
208.489468348
0
LWPOLYLINE
5
B7
100
AcDbEntity
8
0
6
ByLayer
62
0
370
-1
100
AcDbPolyline
90
2
70
0
43
0
10
-24.4295860308
20
200.916561854
10
-8.33721695084
20
200.916561854
0
LWPOLYLINE
5
B8
100
AcDbEntity
8
0
6
ByLayer
62
0
370
-1
100
AcDbPolyline
90
2
70
0
43
0
10
-8.33323379684
20
200.911459141
10
-8.33323379684
20
162.811459141
0
LWPOLYLINE
5
B9
100
AcDbEntity
8
0
6
ByLayer
62
0
370
-1
100
AcDbPolyline
90
2
70
0
43
0
10
48.8467662032
20
154.671459141
10
-24.3232337968
20
154.671459141
0
LWPOLYLINE
5
BA
100
AcDbEntity
8
0
6
ByLayer
62
0
370
-1
100
AcDbPolyline
90
2
70
0
43
0
10
32.6831192002
20
208.478176866
10
32.6831192002
20
162.647030626
0
LWPOLYLINE
5
BB
100
AcDbEntity
8
0
6
ByLayer
62
0
370
-1
100
AcDbPolyline
90
2
70
0
43
0
10
49.0589736922
20
154.565457139
10
49.0589736922
20
162.647030626
0
LWPOLYLINE
5
BC
100
AcDbEntity
8
0
6
ByLayer
62
0
370
-1
100
AcDbPolyline
90
2
70
0
43
0
10
49.0589736922
20
162.753384385
10
32.6831192002
20
162.753384385
0
LWPOLYLINE
5
BD
100
AcDbEntity
8
0
6
ByLayer
62
0
370
-1
100
AcDbPolyline
90
2
70
0
43
0
10
-24.3132337968
20
154.611459141
10
-24.3132337968
20
162.811459141
0
LWPOLYLINE
5
BE
100
AcDbEntity
8
0
6
ByLayer
62
0
370
-1
100
AcDbPolyline
90
2
70
0
43
0
10
-24.3132337968
20
162.751459141
10
-8.32323379684
20
162.751459141
0
CIRCLE
5
BF
100
AcDbEntity
8
0
6
ByLayer
62
0
370
-1
100
AcDbCircle
10
43.8187662032
20
228.825459141
40
1.83501306099
0
CIRCLE
5
C0
100
AcDbEntity
8
0
6
ByLayer
62
0
370
-1
100
AcDbCircle
10
43.8187662032
20
159.809459141
40
1.76867118242
0
CIRCLE
5
C1
100
AcDbEntity
8
0
6
ByLayer
62
0
370
-1
100
AcDbCircle
10
-19.1862337968
20
159.809459141
40
1.77438687249
0
CIRCLE
5
C2
100
AcDbEntity
8
0
6
ByLayer
62
0
370
-1
100
AcDbCircle
10
-19.1862337968
20
228.827459141
40
1.78687949137
0
LWPOLYLINE
5
C3
100
AcDbEntity
8
0
6
ByLayer
62
0
370
-1
100
AcDbPolyline
90
6
70
1
43
0
10
32.2657288062
20
216.811459141
10
34.0662475042
20
219.930049007
10
37.6672849022
20
219.930049007
10
39.4678036002
20
216.811459141
10
37.6672849022
20
213.692869275
10
34.0662475042
20
213.692869275
0
LWPOLYLINE
5
C4
100
AcDbEntity
8
0
6
ByLayer
62
0
370
-1
100
AcDbPolyline
90
6
70
1
43
0
10
-22.7342711938
20
216.811459141
10
-20.9337524958
20
219.930049007
10
-17.3327150978
20
219.930049007
10
-15.5321963998
20
216.811459141
10
-17.3327150978
20
213.692869275
10
-20.9337524958
20
213.692869275
0
LWPOLYLINE
5
C5
100
AcDbEntity
8
0
6
ByLayer
62
0
370
-1
100
AcDbPolyline
90
2
70
0
43
0
10
123.976766203
20
233.801459141
10
50.7767662032
20
233.801459141
0
LWPOLYLINE
5
C6
100
AcDbEntity
8
0
6
ByLayer
62
0
370
-1
100
AcDbPolyline
90
2
70
0
43
0
10
50.7867662032
20
233.811459141
10
50.7909568772
20
201.10979918
0
LWPOLYLINE
5
C7
100
AcDbEntity
8
0
6
ByLayer
62
0
370
-1
100
AcDbPolyline
90
2
70
0
43
0
10
123.936766203
20
233.811459141
10
123.932665251
20
208.489468348
0
LWPOLYLINE
5
C8
100
AcDbEntity
8
0
6
ByLayer
62
0
370
-1
100
AcDbPolyline
90
2
70
0
43
0
10
123.932665251
20
208.489468348
10
107.840303801
20
208.489468348
0
LWPOLYLINE
5
C9
100
AcDbEntity
8
0
6
ByLayer
62
0
370
-1
100
AcDbPolyline
90
2
70
0
43
0
10
50.5704139692
20
200.916561854
10
66.6627830492
20
200.916561854
0
LWPOLYLINE
5
CA
100
AcDbEntity
8
0
6
ByLayer
62
0
370
-1
100
AcDbPolyline
90
2
70
0
43
0
10
66.6667662032
20
200.911459141
10
66.6667662032
20
162.811459141
0
LWPOLYLINE
5
CB
100
AcDbEntity
8
0
6
ByLayer
62
0
370
-1
100
AcDbPolyline
90
2
70
0
43
0
10
123.846766203
20
154.671459141
10
50.6767662032
20
154.671459141
0
LWPOLYLINE
5
CC
100
AcDbEntity
8
0
6
ByLayer
62
0
370
-1
100
AcDbPolyline
90
2
70
0
43
0
10
107.6831192
20
208.478176866
10
107.6831192
20
162.647030626
0
LWPOLYLINE
5
CD
100
AcDbEntity
8
0
6
ByLayer
62
0
370
-1
100
AcDbPolyline
90
2
70
0
43
0
10
124.058973692
20
154.565457139
10
124.058973692
20
162.647030626
0
LWPOLYLINE
5
CE
100
AcDbEntity
8
0
6
ByLayer
62
0
370
-1
100
AcDbPolyline
90
2
70
0
43
0
10
124.058973692
20
162.753384385
10
107.6831192
20
162.753384385
0
LWPOLYLINE
5
CF
100
AcDbEntity
8
0
6
ByLayer
62
0
370
-1
100
AcDbPolyline
90
2
70
0
43
0
10
50.6867662032
20
154.611459141
10
50.6867662032
20
162.811459141
0
LWPOLYLINE
5
D0
100
AcDbEntity
8
0
6
ByLayer
62
0
370
-1
100
AcDbPolyline
90
2
70
0
43
0
10
50.6867662032
20
162.751459141
10
66.6767662032
20
162.751459141
0
CIRCLE
5
D1
100
AcDbEntity
8
0
6
ByLayer
62
0
370
-1
100
AcDbCircle
10
118.818766203
20
228.825459141
40
1.83501306099
0
CIRCLE
5
D2
100
AcDbEntity
8
0
6
ByLayer
62
0
370
-1
100
AcDbCircle
10
118.818766203
20
159.809459141
40
1.76867118242
0
CIRCLE
5
D3
100
AcDbEntity
8
0
6
ByLayer
62
0
370
-1
100
AcDbCircle
10
55.8137662032
20
159.809459141
40
1.77438687249
0
CIRCLE
5
D4
100
AcDbEntity
8
0
6
ByLayer
62
0
370
-1
100
AcDbCircle
10
55.8137662032
20
228.827459141
40
1.78687949137
0
LWPOLYLINE
5
D5
100
AcDbEntity
8
0
6
ByLayer
62
0
370
-1
100
AcDbPolyline
90
16
70
1
43
0
10
109.066766203
20
216.811459141
10
109.203783044
20
217.500289319
10
109.593973997
20
218.084251347
10
110.177936025
20
218.4744423
10
110.866766203
20
218.611459141
10
111.555596381
20
218.4744423
10
112.139558409
20
218.084251347
10
112.529749362
20
217.500289319
10
112.666766203
20
216.811459141
10
112.529749362
20
216.122628963
10
112.139558409
20
215.538666935
10
111.555596381
20
215.148475982
10
110.866766203
20
215.011459141
10
110.177936025
20
215.148475982
10
109.593973997
20
215.538666935
10
109.203783044
20
216.122628963
0
LWPOLYLINE
5
D6
100
AcDbEntity
8
0
6
ByLayer
62
0
370
-1
100
AcDbPolyline
90
16
70
1
43
0
10
54.0667662032
20
216.811459141
10
54.2037830442
20
217.500289319
10
54.5939739972
20
218.084251347
10
55.1779360252
20
218.4744423
10
55.8667662032
20
218.611459141
10
56.5555963812
20
218.4744423
10
57.1395584092
20
218.084251347
10
57.5297493622
20
217.500289319
10
57.6667662032
20
216.811459141
10
57.5297493622
20
216.122628963
10
57.1395584092
20
215.538666935
10
56.5555963812
20
215.148475982
10
55.8667662032
20
215.011459141
10
55.1779360252
20
215.148475982
10
54.5939739972
20
215.538666935
10
54.2037830442
20
216.122628963
0
INSERT
5
D7
100
AcDbEntity
8
0
6
ByLayer
62
256
370
-1
100
AcDbBlockReference
2
POLYGON004
10
248.276766203
20
467.811459141
30
0
41
1
42
1
43
0
50
180
70
1
71
1
44
0
45
0
0
INSERT
5
D8
100
AcDbEntity
8
0
6
ByLayer
62
256
370
-1
100
AcDbBlockReference
2
POLYGON005
10
248.276766203
20
467.811459141
30
0
41
1
42
1
43
0
50
180
70
1
71
1
44
0
45
0
0
LWPOLYLINE
5
D9
100
AcDbEntity
8
0
6
ByLayer
62
0
370
-1
100
AcDbPolyline
90
4
70
1
43
0
10
93.8467662032
20
193.311459141
10
78.3467662032
20
193.311459141
10
78.3467662032
20
172.311459141
10
93.8467662032
20
172.311459141
0
LWPOLYLINE
5
DA
100
AcDbEntity
8
0
6
ByLayer
62
0
370
-1
100
AcDbPolyline
90
16
70
1
43
0
10
84.0667662032
20
197.811459141
10
84.2037830442
20
198.500289319
10
84.5939739972
20
199.084251347
10
85.1779360252
20
199.4744423
10
85.8667662032
20
199.611459141
10
86.5555963812
20
199.4744423
10
87.1395584092
20
199.084251347
10
87.5297493622
20
198.500289319
10
87.6667662032
20
197.811459141
10
87.5297493622
20
197.122628963
10
87.1395584092
20
196.538666935
10
86.5555963812
20
196.148475982
10
85.8667662032
20
196.011459141
10
85.1779360252
20
196.148475982
10
84.5939739972
20
196.538666935
10
84.2037830442
20
197.122628963
0
INSERT
5
DB
100
AcDbEntity
8
0
6
ByLayer
62
256
370
-1
100
AcDbBlockReference
2
POLYGON007
10
248.276766203
20
467.811459141
30
0
41
1
42
1
43
0
50
180
70
1
71
1
44
0
45
0
0
LWPOLYLINE
5
DC
100
AcDbEntity
8
0
6
ByLayer
62
0
370
-1
100
AcDbPolyline
90
4
70
1
43
0
10
47.7767662032
20
204.211459141
10
38.3163627612
20
204.211459141
10
38.3163627612
20
165.374056797
10
47.7767662032
20
165.374056797
0
LWPOLYLINE
5
DD
100
AcDbEntity
8
0
6
ByLayer
62
0
370
-1
100
AcDbPolyline
90
16
70
1
43
0
10
41.0667662032
20
169.811459141
10
41.2037830442
20
170.500289319
10
41.5939739972
20
171.084251347
10
42.1779360252
20
171.4744423
10
42.8667662032
20
171.611459141
10
43.5555963812
20
171.4744423
10
44.1395584092
20
171.084251347
10
44.5297493622
20
170.500289319
10
44.6667662032
20
169.811459141
10
44.5297493622
20
169.122628963
10
44.1395584092
20
168.538666935
10
43.5555963812
20
168.148475982
10
42.8667662032
20
168.011459141
10
42.1779360252
20
168.148475982
10
41.5939739972
20
168.538666935
10
41.2037830442
20
169.122628963
0
LWPOLYLINE
5
DE
100
AcDbEntity
8
0
6
ByLayer
62
0
370
-1
100
AcDbPolyline
90
16
70
1
43
0
10
41.0667662032
20
199.811459141
10
41.2037830442
20
200.500289319
10
41.5939739972
20
201.084251347
10
42.1779360252
20
201.4744423
10
42.8667662032
20
201.611459141
10
43.5555963812
20
201.4744423
10
44.1395584092
20
201.084251347
10
44.5297493622
20
200.500289319
10
44.6667662032
20
199.811459141
10
44.5297493622
20
199.122628963
10
44.1395584092
20
198.538666935
10
43.5555963812
20
198.148475982
10
42.8667662032
20
198.011459141
10
42.1779360252
20
198.148475982
10
41.5939739972
20
198.538666935
10
41.2037830442
20
199.122628963
0
LWPOLYLINE
5
DF
100
AcDbEntity
8
0
6
ByLayer
62
256
370
-1
100
AcDbPolyline
90
23
70
1
43
0
10
43.8311530942
20
191.871186692
10
43.8311530942
20
192.187262982
10
44.4442321042
20
192.7335845
10
44.3284282912
20
193.127317465
10
43.9619432832
20
193.28535561
10
43.5273383842
20
192.877998667
10
43.2848315752
20
192.125955081
10
42.5900086972
20
191.719960536
10
41.8543138842
20
192.104156716
10
41.6567662032
20
192.954292944
10
41.7984555742
20
193.897072222
10
42.5218888072
20
193.897072222
10
42.5218888072
20
193.561922363
10
41.9960032552
20
193.420232992
10
41.8120795522
20
192.921595397
10
41.9524065262
20
192.511513659
10
42.3461394902
20
192.343938729
10
42.8325155052
20
192.74584608
10
43.0831967012
20
193.493802473
10
43.7671203972
20
193.897072222
10
44.4306081262
20
193.526500021
10
44.6213438182
20
192.749933274
10
44.4851040382
20
191.871186692
0
LWPOLYLINE
5
E0
100
AcDbEntity
8
0
6
ByLayer
62
256
370
-1
100
AcDbPolyline
90
24
70
1
43
0
10
41.8475018952
20
190.170914236
10
41.6567662032
20
190.801704418
10
41.8120795522
20
191.225410134
10
42.2316980752
20
191.368461904
10
42.7207988862
20
191.106881526
10
42.8161667322
20
190.531949654
10
42.8134419362
20
190.356200337
10
42.8120795382
20
190.191350203
10
43.1186190442
20
190.179088623
10
43.5082648152
20
190.454292979
10
43.3897362062
20
190.691350196
10
43.1690277622
20
190.73222213
10
43.0504991542
20
190.824865181
10
43.0504991542
20
191.11641831
10
43.1785645472
20
191.209061361
10
43.6622157662
20
190.432494614
10
43.4551313002
20
189.73494694
10
42.8829242242
20
189.582358386
10
42.4524065192
20
189.600069558
10
41.9483193322
20
189.619143127
10
41.8352403152
20
189.504701712
10
41.8338779172
20
189.318053213
10
41.6567662032
20
189.318053213
10
41.6567662032
20
190.170914236
0
LWPOLYLINE
5
E1
100
AcDbEntity
8
0
6
ByLayer
62
256
370
-1
100
AcDbPolyline
90
6
70
1
43
0
10
42.6322430292
20
190.191350203
10
42.6322430292
20
190.342576359
10
42.5164392162
20
190.675001423
10
42.1690277762
20
190.759470086
10
41.8965482162
20
190.497889709
10
42.2548588382
20
190.191350203
0
LWPOLYLINE
5
E2
100
AcDbEntity
8
0
6
ByLayer
62
256
370
-1
100
AcDbPolyline
90
19
70
1
43
0
10
41.8679378622
20
187.650478304
10
42.0341503942
20
187.204974223
10
42.5178016132
20
187.113693571
10
42.5178016132
20
186.79216769
10
41.6567662032
20
186.79216769
10
41.6567662032
20
189.101431962
10
41.8447771002
20
189.101431962
10
41.8447771002
20
189.052385642
10
41.8761122492
20
188.841213982
10
42.0573111572
20
188.74993333
10
44.2221612632
20
188.74993333
10
44.4088097612
20
188.861649949
10
44.4292457282
20
189.101431962
10
44.6213438182
20
189.101431962
10
44.6213438182
20
187.755382935
10
44.3979105792
20
187.755382935
10
44.3992729772
20
187.846663588
10
44.1785645332
20
188.123230341
10
41.8679378622
20
188.123230341
0
LWPOLYLINE
5
E3
100
AcDbEntity
8
0
6
ByLayer
62
256
370
-1
100
AcDbPolyline
90
18
70
1
43
0
10
42.6049950732
20
185.943393859
10
42.4415073362
20
185.943393859
10
41.8120795522
20
185.579633647
10
41.9455945372
20
185.294892506
10
42.2534964402
20
185.184538284
10
42.2698452142
20
185.139579157
10
42.2698452142
20
184.876636381
10
42.2453220532
20
184.831677254
10
42.1540414002
20
184.823502867
10
41.7616708342
20
185.094620029
10
41.6567662032
20
185.613693592
10
41.9210713762
20
186.386173145
10
42.7085373052
20
186.572821644
10
43.4428697202
20
186.348026006
10
43.6622157662
20
185.587808033
10
43.4578560962
20
184.931132293
10
42.8188915272
20
184.749933386
10
42.6049950732
20
184.755382977
0
LWPOLYLINE
5
E4
100
AcDbEntity
8
0
6
ByLayer
62
256
370
-1
100
AcDbPolyline
90
6
70
1
43
0
10
42.8161667322
20
185.334402042
10
42.9346953402
20
185.331677247
10
43.0545863472
20
185.330314849
10
43.5164392022
20
185.642303945
10
43.0287007892
20
185.943393859
10
42.8161667322
20
185.943393859
0
LWPOLYLINE
5
E5
100
AcDbEntity
8
0
6
ByLayer
62
256
370
-1
100
AcDbPolyline
90
26
70
1
43
0
10
43.4455945162
20
182.012876203
10
43.4455945162
20
182.472004262
10
42.0477743722
20
182.472004262
10
41.8529514862
20
182.363012438
10
41.8366027132
20
182.120505629
10
41.6567662032
20
182.120505629
10
41.6567662032
20
183.34666365
10
41.8366027132
20
183.34666365
10
41.8597634752
20
183.136854389
10
42.0395999852
20
183.051023328
10
43.4455945162
20
183.051023328
10
43.4455945162
20
183.34666365
10
43.6554037772
20
183.34666365
10
43.6554037772
20
183.04966093
10
44.4701176622
20
182.902521967
10
44.7957307372
20
182.16955195
10
44.3529514512
20
181.605519261
10
44.2494092192
20
181.623230432
10
44.2221612632
20
181.696799913
10
44.2221612632
20
181.991077838
10
44.3284282912
20
182.079633695
10
44.5259759722
20
182.097344867
10
44.6322430012
20
182.263557399
10
44.2303356492
20
182.472004262
10
43.6554037772
20
182.472004262
10
43.6554037772
20
182.012876203
0
LWPOLYLINE
5
E6
100
AcDbEntity
8
0
6
ByLayer
62
256
370
-1
100
AcDbPolyline
90
18
70
1
43
0
10
42.6049950732
20
181.322140518
10
42.4415073362
20
181.322140518
10
41.8120795522
20
180.958380305
10
41.9455945372
20
180.673639165
10
42.2534964402
20
180.563284943
10
42.2698452142
20
180.518325815
10
42.2698452142
20
180.25538304
10
42.2453220532
20
180.210423912
10
42.1540414002
20
180.202249525
10
41.7616708342
20
180.473366688
10
41.6567662032
20
180.99244025
10
41.9210713762
20
181.764919803
10
42.7085373052
20
181.951568302
10
43.4428697202
20
181.726772665
10
43.6622157662
20
180.966554692
10
43.4578560962
20
180.309878952
10
42.8188915272
20
180.128680044
10
42.6049950732
20
180.134129635
0
LWPOLYLINE
5
E7
100
AcDbEntity
8
0
6
ByLayer
62
256
370
-1
100
AcDbPolyline
90
6
70
1
43
0
10
42.8161667322
20
180.713148701
10
42.9346953402
20
180.710423905
10
43.0545863472
20
180.709061508
10
43.5164392022
20
181.021050604
10
43.0287007892
20
181.322140518
10
42.8161667322
20
181.322140518
0
LWPOLYLINE
5
E8
100
AcDbEntity
8
0
6
ByLayer
62
256
370
-1
100
AcDbPolyline
90
16
70
1
43
0
10
43.0341503802
20
178.288080615
10
43.5164392022
20
178.692712762
10
43.2003629122
20
179.085083329
10
42.6404174152
20
179.135492047
10
42.1009078862
20
179.089170522
10
41.7998179722
20
178.709061535
10
41.9578561172
20
178.383448461
10
42.3257035232
20
178.289443013
10
42.3257035232
20
178.001977077
10
41.7780196072
20
178.001977077
10
41.6567662032
20
178.819415757
10
41.9115345922
20
179.560560161
10
42.6554037912
20
179.77173182
10
43.6622157662
20
178.767644641
10
43.5164392022
20
178.001977077
10
43.0341503802
20
178.001977077
0
LWPOLYLINE
5
E9
100
AcDbEntity
8
0
6
ByLayer
62
256
370
-1
100
AcDbPolyline
90
14
70
1
43
0
10
41.8366027132
20
176.59325775
10
41.6567662032
20
176.59325775
10
41.6676653852
20
177.179088805
10
41.6567662032
20
177.766282257
10
41.8366027132
20
177.766282257
10
41.8570386802
20
177.555110598
10
42.0355127922
20
177.467917139
10
43.2902811672
20
177.467917139
10
43.4510441072
20
177.563284985
10
43.4742048702
20
177.766282257
10
43.6554037772
20
177.766282257
10
43.6554037772
20
176.891622869
10
42.1744773672
20
176.891622869
10
41.8965482162
20
176.860287719
0
LWPOLYLINE
5
EA
100
AcDbEntity
8
0
6
ByLayer
62
256
370
-1
100
AcDbPolyline
90
4
70
1
43
0
10
44.3693002252
20
177.463829945
10
44.7085372782
20
177.168189622
10
44.3502266562
20
176.869824504
10
44.0341503662
20
177.168189622
0
LWPOLYLINE
5
EB
100
AcDbEntity
8
0
6
ByLayer
62
256
370
-1
100
AcDbPolyline
90
16
70
1
43
0
10
43.4455945162
20
176.180451217
10
43.4455945162
20
176.458380368
10
43.6554037772
20
176.458380368
10
43.6554037772
20
176.180451217
10
44.1799269312
20
176.180451217
10
44.3597634402
20
175.604156947
10
43.6554037772
20
175.604156947
10
43.6554037772
20
175.192712811
10
43.4455945162
20
175.192712811
10
43.4455945162
20
175.604156947
10
42.2957307722
20
175.604156947
10
41.8556762822
20
175.339851773
10
41.8883738292
20
175.15592807
10
41.7330604802
20
175.15592807
10
41.6567662032
20
175.669552041
10
42.1758397652
20
176.180451217
0
LWPOLYLINE
5
EC
100
AcDbEntity
8
0
6
ByLayer
62
256
370
-1
100
AcDbPolyline
90
23
70
1
43
0
10
72.8472114034
20
162.279687415
10
72.5311351134
20
162.279687415
10
71.9848135954
20
162.892766425
10
71.5910806304
20
162.776962612
10
71.4330424854
20
162.410477604
10
71.8403994284
20
161.975872705
10
72.5924430144
20
161.733365896
10
72.9984375594
20
161.038543018
10
72.6142413794
20
160.302848205
10
71.7641051514
20
160.105300524
10
70.8213258734
20
160.246989895
10
70.8213258734
20
160.970423128
10
71.1564757324
20
160.970423128
10
71.2981651034
20
160.444537576
10
71.7968026984
20
160.260613873
10
72.2068844364
20
160.400940847
10
72.3744593664
20
160.794673811
10
71.9725520154
20
161.281049826
10
71.2245956224
20
161.531731022
10
70.8213258734
20
162.215654718
10
71.1918980744
20
162.879142447
10
71.9684648214
20
163.069878139
10
72.8472114034
20
162.933638359
0
LWPOLYLINE
5
ED
100
AcDbEntity
8
0
6
ByLayer
62
256
370
-1
100
AcDbPolyline
90
24
70
1
43
0
10
74.5474838594
20
160.296036216
10
73.9166936774
20
160.105300524
10
73.4929879614
20
160.260613873
10
73.3499361914
20
160.680232396
10
73.6115165694
20
161.169333207
10
74.1864484414
20
161.264701053
10
74.3621977584
20
161.261976257
10
74.5270478924
20
161.260613859
10
74.5393094724
20
161.567153365
10
74.2641051164
20
161.956799136
10
74.0270478994
20
161.838270527
10
73.9861759654
20
161.617562083
10
73.8935329144
20
161.499033475
10
73.6019797854
20
161.499033475
10
73.5093367344
20
161.627098868
10
74.2859034814
20
162.110750087
10
74.9834511554
20
161.903665621
10
75.1360397094
20
161.331458545
10
75.1183285374
20
160.90094084
10
75.0992549684
20
160.396853653
10
75.2136963834
20
160.283774636
10
75.4003448824
20
160.282412238
10
75.4003448824
20
160.105300524
10
74.5474838594
20
160.105300524
0
LWPOLYLINE
5
EE
100
AcDbEntity
8
0
6
ByLayer
62
256
370
-1
100
AcDbPolyline
90
6
70
1
43
0
10
74.5270478924
20
161.08077735
10
74.3758217364
20
161.08077735
10
74.0433966724
20
160.964973537
10
73.9589280094
20
160.617562097
10
74.2205083864
20
160.345082537
10
74.5270478924
20
160.703393159
0
LWPOLYLINE
5
EF
100
AcDbEntity
8
0
6
ByLayer
62
256
370
-1
100
AcDbPolyline
90
19
70
1
43
0
10
77.0679197914
20
160.316472183
10
77.5134238724
20
160.482684715
10
77.6047045244
20
160.966335934
10
77.9262304054
20
160.966335934
10
77.9262304054
20
160.105300524
10
75.6169661334
20
160.105300524
10
75.6169661334
20
160.293311421
10
75.6660124534
20
160.293311421
10
75.8771841134
20
160.32464657
10
75.9684647654
20
160.505845478
10
75.9684647654
20
162.670695584
10
75.8567481464
20
162.857344082
10
75.6169661334
20
162.877780049
10
75.6169661334
20
163.069878139
10
76.9630151604
20
163.069878139
10
76.9630151604
20
162.8464449
10
76.8717345074
20
162.847807298
10
76.5951677544
20
162.627098854
10
76.5951677544
20
160.316472183
0
LWPOLYLINE
5
F0
100
AcDbEntity
8
0
6
ByLayer
62
256
370
-1
100
AcDbPolyline
90
18
70
1
43
0
10
78.7750042364
20
161.053529394
10
78.7750042364
20
160.890041657
10
79.1387644484
20
160.260613873
10
79.4235055894
20
160.394128858
10
79.5338598114
20
160.702030761
10
79.5788189384
20
160.718379535
10
79.8417617144
20
160.718379535
10
79.8867208414
20
160.693856374
10
79.8948952284
20
160.602575721
10
79.6237780664
20
160.210205155
10
79.1047045034
20
160.105300524
10
78.3322249504
20
160.369605697
10
78.1455764514
20
161.157071626
10
78.3703720894
20
161.891404041
10
79.1305900624
20
162.110750087
10
79.7872658024
20
161.906390417
10
79.9684647094
20
161.267425848
10
79.9630151184
20
161.053529394
0
LWPOLYLINE
5
F1
100
AcDbEntity
8
0
6
ByLayer
62
256
370
-1
100
AcDbPolyline
90
6
70
1
43
0
10
79.3839960534
20
161.264701053
10
79.3867208484
20
161.383229661
10
79.3880832464
20
161.503120668
10
79.0760941504
20
161.964973523
10
78.7750042364
20
161.47723511
10
78.7750042364
20
161.264701053
0
LWPOLYLINE
5
F2
100
AcDbEntity
8
0
6
ByLayer
62
256
370
-1
100
AcDbPolyline
90
26
70
1
43
0
10
82.7055218924
20
161.894128837
10
82.2463938334
20
161.894128837
10
82.2463938334
20
160.496308693
10
82.3553856574
20
160.301485807
10
82.5978924664
20
160.285137034
10
82.5978924664
20
160.105300524
10
81.3717344454
20
160.105300524
10
81.3717344454
20
160.285137034
10
81.5815437064
20
160.308297796
10
81.6673747674
20
160.488134306
10
81.6673747674
20
161.894128837
10
81.3717344454
20
161.894128837
10
81.3717344454
20
162.103938098
10
81.6687371654
20
162.103938098
10
81.8158761284
20
162.918651983
10
82.5488461454
20
163.244265058
10
83.1128788344
20
162.801485772
10
83.0951676634
20
162.69794354
10
83.0215981824
20
162.670695584
10
82.7273202574
20
162.670695584
10
82.6387644004
20
162.776962612
10
82.6210532284
20
162.974510293
10
82.4548406964
20
163.080777322
10
82.2463938334
20
162.67886997
10
82.2463938334
20
162.103938098
10
82.7055218924
20
162.103938098
0
LWPOLYLINE
5
F3
100
AcDbEntity
8
0
6
ByLayer
62
256
370
-1
100
AcDbPolyline
90
18
70
1
43
0
10
83.3962575774
20
161.053529394
10
83.3962575774
20
160.890041657
10
83.7600177904
20
160.260613873
10
84.0447589304
20
160.394128858
10
84.1551131524
20
160.702030761
10
84.2000722804
20
160.718379535
10
84.4630150554
20
160.718379535
10
84.5079741834
20
160.693856374
10
84.5161485704
20
160.602575721
10
84.2450314074
20
160.210205155
10
83.7259578454
20
160.105300524
10
82.9534782924
20
160.369605697
10
82.7668297934
20
161.157071626
10
82.9916254304
20
161.891404041
10
83.7518434034
20
162.110750087
10
84.4085191434
20
161.906390417
10
84.5897180514
20
161.267425848
10
84.5842684604
20
161.053529394
0
LWPOLYLINE
5
F4
100
AcDbEntity
8
0
6
ByLayer
62
256
370
-1
100
AcDbPolyline
90
6
70
1
43
0
10
84.0052493944
20
161.264701053
10
84.0079741904
20
161.383229661
10
84.0093365874
20
161.503120668
10
83.6973474914
20
161.964973523
10
83.3962575774
20
161.47723511
10
83.3962575774
20
161.264701053
0
LWPOLYLINE
5
F5
100
AcDbEntity
8
0
6
ByLayer
62
256
370
-1
100
AcDbPolyline
90
16
70
1
43
0
10
86.4303174804
20
161.482684701
10
86.0256853334
20
161.964973523
10
85.6333147664
20
161.648897233
10
85.5829060484
20
161.088951736
10
85.6292275734
20
160.549442207
10
86.0093365604
20
160.248352293
10
86.3349496344
20
160.406390438
10
86.4289550824
20
160.774237844
10
86.7164210184
20
160.774237844
10
86.7164210184
20
160.226553928
10
85.8989823384
20
160.105300524
10
85.1578379344
20
160.360068913
10
84.9466662754
20
161.103938112
10
85.9507534544
20
162.110750087
10
86.7164210184
20
161.964973523
10
86.7164210184
20
161.482684701
0
LWPOLYLINE
5
F6
100
AcDbEntity
8
0
6
ByLayer
62
256
370
-1
100
AcDbPolyline
90
14
70
1
43
0
10
88.1251403454
20
160.285137034
10
88.1251403454
20
160.105300524
10
87.5393092904
20
160.116199706
10
86.9521158384
20
160.105300524
10
86.9521158384
20
160.285137034
10
87.1632874974
20
160.305573001
10
87.2504809564
20
160.484047113
10
87.2504809564
20
161.738815488
10
87.1551131104
20
161.899578428
10
86.9521158384
20
161.922739191
10
86.9521158384
20
162.103938098
10
87.8267752264
20
162.103938098
10
87.8267752264
20
160.623011688
10
87.8581103764
20
160.345082537
0
LWPOLYLINE
5
F7
100
AcDbEntity
8
0
6
ByLayer
62
256
370
-1
100
AcDbPolyline
90
4
70
1
43
0
10
87.2545681504
20
162.817834546
10
87.5502084734
20
163.157071599
10
87.8485735914
20
162.798760977
10
87.5502084734
20
162.482684687
0
LWPOLYLINE
5
F8
100
AcDbEntity
8
0
6
ByLayer
62
256
370
-1
100
AcDbPolyline
90
16
70
1
43
0
10
88.5379468784
20
161.894128837
10
88.2600177274
20
161.894128837
10
88.2600177274
20
162.103938098
10
88.5379468784
20
162.103938098
10
88.5379468784
20
162.628461252
10
89.1142411484
20
162.808297761
10
89.1142411484
20
162.103938098
10
89.5256852844
20
162.103938098
10
89.5256852844
20
161.894128837
10
89.1142411484
20
161.894128837
10
89.1142411484
20
160.744265093
10
89.3785463224
20
160.304210603
10
89.5624700254
20
160.33690815
10
89.5624700254
20
160.181594801
10
89.0488460544
20
160.105300524
10
88.5379468784
20
160.624374086
0
LWPOLYLINE
5
F9
100
AcDbEntity
8
0
6
ByLayer
62
256
370
-1
100
AcDbPolyline
90
4
70
1
43
0
10
90.9630149644
20
160.802848198
10
90.9630149644
20
161.326008954
10
92.0175108634
20
161.326008954
10
92.0175108634
20
160.802848198
0
LWPOLYLINE
5
FA
100
AcDbEntity
8
0
6
ByLayer
62
256
370
-1
100
AcDbPolyline
90
20
70
1
43
0
10
93.5788187434
20
160.583502152
10
94.7641048304
20
162.176145182
10
94.4657397114
20
162.618924467
10
94.2082465274
20
162.451349538
10
94.1823609694
20
162.136635645
10
94.0188732324
20
161.969060716
10
93.7750040264
20
161.969060716
10
93.6469386334
20
162.147534828
10
93.9289549784
20
162.661158799
10
94.5215980214
20
162.808297761
10
95.1292274404
20
162.691131551
10
95.4003446034
20
162.172057988
10
95.2859031874
20
161.738815488
10
94.9684645004
20
161.417289606
10
93.9752765034
20
160.627098882
10
94.9643773064
20
160.627098882
10
95.2409440604
20
161.020831846
10
95.4289549574
20
161.020831846
10
95.4289549574
20
160.105300524
10
93.5788187434
20
160.105300524
0
LWPOLYLINE
5
FB
100
AcDbEntity
8
0
6
ByLayer
62
256
370
-1
100
AcDbPolyline
90
8
70
1
43
0
10
95.8458486844
20
161.505845464
10
96.0284099894
20
162.425463979
10
96.8458486704
20
162.808297761
10
97.6837233174
20
162.388679239
10
97.8444862584
20
161.418652004
10
97.6673745444
20
160.4922215
10
96.8458486704
20
160.105300524
10
96.0052492264
20
160.531731036
0
LWPOLYLINE
5
FC
100
AcDbEntity
8
0
6
ByLayer
62
256
370
-1
100
AcDbPolyline
90
8
70
1
43
0
10
96.4657396834
20
161.290586611
10
96.8458486704
20
160.260613873
10
97.2300448504
20
161.306935385
10
97.2273200544
20
161.485409497
10
97.2259576564
20
161.620286879
10
96.8458486704
20
162.61075008
10
96.4616524904
20
161.593038923
10
96.4630148884
20
161.4213768
0
LWPOLYLINE
5
FD
100
AcDbEntity
8
0
6
ByLayer
62
256
370
-1
100
AcDbPolyline
90
14
70
1
43
0
10
99.5910802394
20
162.721104302
10
99.5910802394
20
160.612112506
10
99.7205080304
20
160.319196979
10
100.06110748
20
160.290586625
10
100.06110748
20
160.105300524
10
98.4589276664
20
160.105300524
10
98.4589276664
20
160.293311421
10
98.7164208514
20
160.309660194
10
98.9275925104
20
160.381867278
10
99.0147859694
20
160.618924495
10
99.0147859694
20
162.369605669
10
98.2872655434
20
161.977235103
10
98.2872655434
20
162.249714663
10
99.1319521804
20
162.721104302
0
LWPOLYLINE
5
FE
100
AcDbEntity
8
0
6
ByLayer
62
256
370
-1
100
AcDbPolyline
90
15
70
1
43
0
10
101.52977231
20
162.086226927
10
101.427592475
20
162.221104309
10
101.371734165
20
162.471785505
10
101.110153787
20
162.606662887
10
100.754567961
20
161.924101589
10
100.760017552
20
161.677507587
10
101.240943976
20
161.813747367
10
102.051570668
20
161.056254189
10
101.08971782
20
160.105300524
10
100.289990311
20
160.455436759
10
100.118328188
20
161.342357727
10
100.251843173
20
162.346444907
10
101.085630627
20
162.808297761
10
101.935766855
20
162.21429232
10
101.828137428
20
162.086226927
0
LWPOLYLINE
5
FF
100
AcDbEntity
8
0
6
ByLayer
62
256
370
-1
100
AcDbPolyline
90
6
70
1
43
0
10
101.1019794
20
160.252439487
10
101.416693293
20
160.843720132
10
101.416693293
20
161.048079802
10
101.069281853
20
161.620286879
10
100.758655155
20
161.011295062
10
100.794077497
20
160.537180627
0
LWPOLYLINE
5
100
100
AcDbEntity
8
0
6
ByLayer
62
256
370
-1
100
AcDbPolyline
90
8
70
1
43
0
10
60.7341324134
20
157.588951729
10
61.0842686484
20
158.704755529
10
62.2055220384
20
159.069878139
10
63.3295002244
20
158.704755529
10
63.6796364594
20
157.588951729
10
63.3335874184
20
156.469060737
10
62.2055220384
20
156.105300524
10
61.0842686484
20
156.47314793
0
LWPOLYLINE
5
101
100
AcDbEntity
8
0
6
ByLayer
62
256
370
-1
100
AcDbPolyline
90
8
70
1
43
0
10
62.9848135814
20
157.628461266
10
62.8703721654
20
158.471785505
10
62.2068844364
20
158.896853619
10
61.5284103314
20
158.433638366
10
61.4275928944
20
157.539905409
10
61.5461215034
20
156.693856374
10
62.2068844364
20
156.264701067
10
62.8853585414
20
156.730641115
0
LWPOLYLINE
5
102
100
AcDbEntity
8
0
6
ByLayer
62
256
370
-1
100
AcDbPolyline
90
23
70
1
43
0
10
66.0733693964
20
158.279687415
10
65.7572931064
20
158.279687415
10
65.2109715884
20
158.892766425
10
64.8172386234
20
158.776962612
10
64.6592004784
20
158.410477604
10
65.0665574214
20
157.975872705
10
65.8186010074
20
157.733365896
10
66.2245955524
20
157.038543018
10
65.8403993724
20
156.302848205
10
64.9902631444
20
156.105300524
10
64.0474838664
20
156.246989895
10
64.0474838664
20
156.970423128
10
64.3826337254
20
156.970423128
10
64.5243230964
20
156.444537576
10
65.0229606914
20
156.260613873
10
65.4330424294
20
156.400940847
10
65.6006173594
20
156.794673811
10
65.1987100084
20
157.281049826
10
64.4507536154
20
157.531731022
10
64.0474838664
20
158.215654718
10
64.4180560684
20
158.879142447
10
65.1946228144
20
159.069878139
10
66.0733693964
20
158.933638359
0
LWPOLYLINE
5
103
100
AcDbEntity
8
0
6
ByLayer
62
256
370
-1
100
AcDbPolyline
90
32
70
1
43
0
10
66.8567481324
20
158.670695584
10
66.7368571254
20
158.85870648
10
66.4889007254
20
158.879142447
10
66.4889007254
20
159.069878139
10
67.8512985264
20
159.069878139
10
67.8512985264
20
158.8464449
10
67.7613802724
20
158.847807298
10
67.4834511204
20
158.627098854
10
67.4834511204
20
157.691131565
10
68.0188734564
20
158.252439459
10
68.4303175924
20
158.855981684
10
68.3581105084
20
158.877780049
10
68.3581105084
20
159.069878139
10
69.2491186704
20
159.069878139
10
69.2491186704
20
158.877780049
10
68.7382194954
20
158.711567518
10
68.3376745414
20
158.327371338
10
67.9929878984
20
157.89821603
10
68.9303175854
20
156.603938119
10
69.1128788904
20
156.372330493
10
69.3921704394
20
156.285137034
10
69.3921704394
20
156.105300524
10
68.4916254934
20
156.105300524
10
67.4834511204
20
157.505845464
10
67.4834511204
20
156.51674466
10
67.5978925354
20
156.31238499
10
67.8512985264
20
156.293311421
10
67.8512985264
20
156.105300524
10
66.4889007254
20
156.105300524
10
66.4889007254
20
156.296036216
10
66.7409443184
20
156.313747388
10
66.8567481324
20
156.509932671
0
LWPOLYLINE
5
104
100
AcDbEntity
8
0
6
ByLayer
62
256
370
-1
100
AcDbPolyline
90
32
70
1
43
0
10
71.3349497044
20
156.526281445
10
71.3594728644
20
156.369605697
10
71.3594728644
20
156.370968095
10
71.7654674094
20
156.293311421
10
71.7654674094
20
156.105300524
10
71.0215982104
20
156.113474911
10
70.2763666124
20
156.105300524
10
70.2763666124
20
156.293311421
10
70.4602903164
20
156.291949023
10
70.6769115664
20
156.376417686
10
70.7068843184
20
156.631186075
10
70.7068843184
20
157.225191517
10
70.5093366364
20
157.753801863
10
70.0488461804
20
158.470423107
10
69.5406718004
20
158.883229641
10
69.5406718004
20
159.069878139
10
70.9589279114
20
159.069878139
10
70.9589279114
20
158.872330458
10
70.7627426274
20
158.840995309
10
70.6483012124
20
158.699305937
10
70.9030696014
20
158.227916298
10
71.2177834934
20
157.710205134
10
71.7286826684
20
158.742902667
10
71.7041595084
20
158.813747353
10
71.6551131874
20
158.854619287
10
71.4384919374
20
158.881867243
10
71.4384919374
20
159.069878139
10
72.4303175364
20
159.069878139
10
72.4303175364
20
158.883229641
10
71.9602902954
20
158.534455803
10
71.5270477944
20
157.900940826
10
71.3349497044
20
157.462248734
0
LWPOLYLINE
5
105
100
AcDbEntity
8
0
6
ByLayer
62
256
370
-1
100
AcDbPolyline
90
4
70
1
43
0
10
73.8131513044
20
156.802848198
10
73.8131513044
20
157.326008954
10
74.8676472024
20
157.326008954
10
74.8676472024
20
156.802848198
0
LWPOLYLINE
5
106
100
AcDbEntity
8
0
6
ByLayer
62
256
370
-1
100
AcDbPolyline
90
20
70
1
43
0
10
76.7518433614
20
156.293311421
10
76.9330422694
20
156.289224227
10
77.1823610664
20
156.524919047
10
77.1823610664
20
158.826008933
10
77.0106989434
20
158.826008933
10
76.5856308294
20
158.699305937
10
76.4875381884
20
158.255164254
10
76.1673747044
20
158.255164254
10
76.1673747044
20
159.069878139
10
78.8281376104
20
159.069878139
10
78.8281376104
20
158.255164254
10
78.5079741274
20
158.255164254
10
78.3458487884
20
158.761976236
10
77.8104264534
20
158.826008933
10
77.8104264534
20
156.508570273
10
77.9548406204
20
156.305573001
10
78.2409441584
20
156.293311421
10
78.2409441584
20
156.105300524
10
77.4970749584
20
156.113474911
10
76.7518433614
20
156.105300524
0
LWPOLYLINE
5
107
100
AcDbEntity
8
0
6
ByLayer
62
256
370
-1
100
AcDbPolyline
90
18
70
1
43
0
10
79.0638324304
20
157.053529394
10
79.0638324304
20
156.890041657
10
79.4275926434
20
156.260613873
10
79.7123337834
20
156.394128858
10
79.8226880054
20
156.702030761
10
79.8676471324
20
156.718379535
10
80.1305899084
20
156.718379535
10
80.1755490354
20
156.693856374
10
80.1837234224
20
156.602575721
10
79.9126062604
20
156.210205155
10
79.3935326984
20
156.105300524
10
78.6210531444
20
156.369605697
10
78.4344046464
20
157.157071626
10
78.6592002834
20
157.891404041
10
79.4194182564
20
158.110750087
10
80.0760939964
20
157.906390417
10
80.2572929034
20
157.267425848
10
80.2518433124
20
157.053529394
0
LWPOLYLINE
5
108
100
AcDbEntity
8
0
6
ByLayer
62
256
370
-1
100
AcDbPolyline
90
6
70
1
43
0
10
79.6728242474
20
157.264701053
10
79.6755490424
20
157.383229661
10
79.6769114404
20
157.503120668
10
79.3649223444
20
157.964973523
10
79.0638324304
20
157.47723511
10
79.0638324304
20
157.264701053
0
LWPOLYLINE
5
109
100
AcDbEntity
8
0
6
ByLayer
62
256
370
-1
100
AcDbPolyline
90
14
70
1
43
0
10
81.7000721754
20
156.283774636
10
81.7000721754
20
156.105300524
10
81.1142411204
20
156.116199706
10
80.5270476684
20
156.105300524
10
80.5270476684
20
156.283774636
10
80.7395817254
20
156.306935399
10
80.8254127874
20
156.485409511
10
80.8254127874
20
158.884592038
10
80.7341321344
20
159.05080457
10
80.5270476684
20
159.071240537
10
80.5270476684
20
159.244265058
10
81.4017070564
20
159.244265058
10
81.4017070564
20
156.526281445
10
81.4616525604
20
156.315109785
0
LWPOLYLINE
5
10A
100
AcDbEntity
8
0
6
ByLayer
62
256
370
-1
100
AcDbPolyline
90
24
70
1
43
0
10
83.2068841434
20
156.296036216
10
82.5760939614
20
156.105300524
10
82.1523882454
20
156.260613873
10
82.0093364764
20
156.680232396
10
82.2709168544
20
157.169333207
10
82.8458487264
20
157.264701053
10
83.0215980424
20
157.261976257
10
83.1864481764
20
157.260613859
10
83.1987097564
20
157.567153365
10
82.9235054004
20
157.956799136
10
82.6864481834
20
157.838270527
10
82.6455762494
20
157.617562083
10
82.5529331984
20
157.499033475
10
82.2613800694
20
157.499033475
10
82.1687370184
20
157.627098868
10
82.9453037654
20
158.110750087
10
83.6428514394
20
157.903665621
10
83.7954399934
20
157.331458545
10
83.7777288224
20
156.90094084
10
83.7586552524
20
156.396853653
10
83.8730966684
20
156.283774636
10
84.0597451664
20
156.282412238
10
84.0597451664
20
156.105300524
10
83.2068841434
20
156.105300524
0
LWPOLYLINE
5
10B
100
AcDbEntity
8
0
6
ByLayer
62
256
370
-1
100
AcDbPolyline
90
6
70
1
43
0
10
83.1864481764
20
157.08077735
10
83.0352220204
20
157.08077735
10
82.7027969574
20
156.964973537
10
82.6183282934
20
156.617562097
10
82.8799086714
20
156.345082537
10
83.1864481764
20
156.703393159
0
LWPOLYLINE
5
10C
100
AcDbEntity
8
0
6
ByLayer
62
256
370
-1
100
AcDbPolyline
90
14
70
1
43
0
10
85.4493909244
20
156.285137034
10
85.4493909244
20
156.105300524
10
84.8635598694
20
156.116199706
10
84.2763664174
20
156.105300524
10
84.2763664174
20
156.285137034
10
84.4875380764
20
156.305573001
10
84.5747315354
20
156.484047113
10
84.5747315354
20
157.738815488
10
84.4793636894
20
157.899578428
10
84.2763664174
20
157.922739191
10
84.2763664174
20
158.103938098
10
85.1510258054
20
158.103938098
10
85.1510258054
20
156.623011688
10
85.1823609554
20
156.345082537
0
LWPOLYLINE
5
10D
100
AcDbEntity
8
0
6
ByLayer
62
256
370
-1
100
AcDbPolyline
90
4
70
1
43
0
10
84.5788187294
20
158.817834546
10
84.8744590524
20
159.157071599
10
85.1728241704
20
158.798760977
10
84.8744590524
20
158.482684687
0
LWPOLYLINE
5
10E
100
AcDbEntity
8
0
6
ByLayer
62
256
370
-1
100
AcDbPolyline
90
8
70
1
43
0
10
87.7532056054
20
157.063066178
10
87.5147859904
20
156.332820957
10
86.7586552104
20
156.105300524
10
85.9861756574
20
156.346444935
10
85.7586552244
20
157.106662908
10
85.9875380554
20
157.864156085
10
86.7586552104
20
158.110750087
10
87.5393091514
20
157.847807312
0
LWPOLYLINE
5
10F
100
AcDbEntity
8
0
6
ByLayer
62
256
370
-1
100
AcDbPolyline
90
7
70
1
43
0
10
86.3867206114
20
157.331458545
10
86.3867206114
20
156.962248741
10
86.4357669324
20
156.508570273
10
86.7586552104
20
156.252439487
10
87.1305898104
20
156.962248741
10
87.1305898104
20
157.331458545
10
86.7586552104
20
157.960886329
0
LWPOLYLINE
5
110
100
AcDbEntity
8
0
6
ByLayer
62
256
370
-1
100
AcDbPolyline
90
17
70
1
43
0
10
90.6646497064
20
156.326008968
10
90.1006170174
20
156.105300524
10
89.2463935954
20
157.038543018
10
90.0624698784
20
158.110750087
10
90.6401265464
20
157.932275975
10
90.6401265464
20
158.877780049
10
90.5529330874
20
159.052166968
10
90.3417614274
20
159.072602935
10
90.3417614274
20
159.244265058
10
91.2164208164
20
159.244265058
10
91.2150584184
20
156.520831853
10
91.2695543304
20
156.326008968
10
91.2681919324
20
156.326008968
10
91.5188731284
20
156.285137034
10
91.5188731284
20
156.105300524
10
91.0924426164
20
156.116199706
10
90.6646497064
20
156.105300524
0
LWPOLYLINE
5
111
100
AcDbEntity
8
0
6
ByLayer
62
256
370
-1
100
AcDbPolyline
90
10
70
1
43
0
10
90.6360393524
20
157.424101595
10
90.5583826784
20
157.764701046
10
90.2763663334
20
157.936363169
10
89.9371292814
20
157.697943554
10
89.8867205624
20
157.248352279
10
89.8867205624
20
156.992221493
10
89.9357668834
20
156.549442207
10
90.2545679684
20
156.304210603
10
90.5488458934
20
156.459523952
10
90.6360393524
20
156.794673811
0
LWPOLYLINE
5
112
100
AcDbEntity
8
0
6
ByLayer
62
256
370
-1
100
AcDbPolyline
90
14
70
1
43
0
10
92.8608349624
20
156.285137034
10
92.8608349624
20
156.105300524
10
92.2750039074
20
156.116199706
10
91.6878104554
20
156.105300524
10
91.6878104554
20
156.285137034
10
91.8989821144
20
156.305573001
10
91.9861755734
20
156.484047113
10
91.9861755734
20
157.738815488
10
91.8908077274
20
157.899578428
10
91.6878104554
20
157.922739191
10
91.6878104554
20
158.103938098
10
92.5624698434
20
158.103938098
10
92.5624698434
20
156.623011688
10
92.5938049934
20
156.345082537
0
LWPOLYLINE
5
113
100
AcDbEntity
8
0
6
ByLayer
62
256
370
-1
100
AcDbPolyline
90
4
70
1
43
0
10
91.9902627674
20
158.817834546
10
92.2859030904
20
159.157071599
10
92.5842682084
20
158.798760977
10
92.2859030904
20
158.482684687
0
LWPOLYLINE
5
114
100
AcDbEntity
8
0
6
ByLayer
62
256
370
-1
100
AcDbPolyline
90
21
70
1
43
0
10
94.5910801694
20
157.515382248
10
94.3172382114
20
157.515382248
10
94.2491183214
20
157.840995323
10
93.9534779984
20
157.964973523
10
93.6278649244
20
157.695218758
10
93.9003444844
20
157.418652004
10
94.4085188644
20
157.236090699
10
94.6823608224
20
156.736090706
10
94.4289548314
20
156.248352293
10
93.8690093354
20
156.105300524
10
93.0829058034
20
156.182957199
10
93.0829058034
20
156.742902695
10
93.3812709224
20
156.742902695
10
93.4534780054
20
156.394128858
10
93.7572927154
20
156.2442651
10
94.1374017014
20
156.565790981
10
93.8662845394
20
156.826008961
10
93.3567477614
20
157.003120675
10
93.0829058034
20
157.456799143
10
93.9766387614
20
158.110750087
10
94.5910801694
20
158.026281424
0
LWPOLYLINE
5
115
100
AcDbEntity
8
0
6
ByLayer
62
256
370
-1
100
AcDbPolyline
90
18
70
1
43
0
10
95.7804534504
20
157.89821603
10
96.4071564384
20
158.110750087
10
97.1837231854
20
157.128461273
10
96.3730964934
20
156.105300524
10
95.8131509974
20
156.252439487
10
95.8131509974
20
155.44453759
10
95.9262300144
20
155.260613887
10
96.1605624364
20
155.24017792
10
96.1605624364
20
155.058979013
10
94.9139684484
20
155.058979013
10
94.9139684484
20
155.24017792
10
95.1428512794
20
155.260613887
10
95.2341319314
20
155.441812795
10
95.2341319314
20
157.745627477
10
95.1360392904
20
157.926826384
10
94.9139684484
20
157.947262351
10
94.9139684484
20
158.110750087
10
95.7804534504
20
158.110750087
0
LWPOLYLINE
5
116
100
AcDbEntity
8
0
6
ByLayer
62
256
370
-1
100
AcDbPolyline
90
7
70
1
43
0
10
96.5570201964
20
157.268788246
10
96.1809984034
20
157.914564804
10
95.8063390084
20
157.178869991
10
95.8376741574
20
156.623011688
10
96.1809984034
20
156.276962647
10
96.5011618864
20
156.500395886
10
96.5570201964
20
156.925464
0
LWPOLYLINE
5
117
100
AcDbEntity
8
0
6
ByLayer
62
256
370
-1
100
AcDbPolyline
90
14
70
1
43
0
10
98.6156032744
20
156.283774636
10
98.6156032744
20
156.105300524
10
98.0297722194
20
156.116199706
10
97.4425787674
20
156.105300524
10
97.4425787674
20
156.283774636
10
97.6551128244
20
156.306935399
10
97.7409438854
20
156.485409511
10
97.7409438854
20
158.884592038
10
97.6496632334
20
159.05080457
10
97.4425787674
20
159.071240537
10
97.4425787674
20
159.244265058
10
98.3172381554
20
159.244265058
10
98.3172381554
20
156.526281445
10
98.3771836594
20
156.315109785
0
LWPOLYLINE
5
118
100
AcDbEntity
8
0
6
ByLayer
62
256
370
-1
100
AcDbPolyline
90
24
70
1
43
0
10
100.122415242
20
156.296036216
10
99.4916250604
20
156.105300524
10
99.0679193444
20
156.260613873
10
98.9248675754
20
156.680232396
10
99.1864479524
20
157.169333207
10
99.7613798244
20
157.264701053
10
99.9371291414
20
157.261976257
10
100.101979275
20
157.260613859
10
100.114240855
20
157.567153365
10
99.8390364994
20
157.956799136
10
99.6019792824
20
157.838270527
10
99.5611073484
20
157.617562083
10
99.4684642974
20
157.499033475
10
99.1769111684
20
157.499033475
10
99.0842681174
20
157.627098868
10
99.8608348644
20
158.110750087
10
100.558382538
20
157.903665621
10
100.710971092
20
157.331458545
10
100.69325992
20
156.90094084
10
100.674186351
20
156.396853653
10
100.788627767
20
156.283774636
10
100.975276265
20
156.282412238
10
100.975276265
20
156.105300524
10
100.122415242
20
156.105300524
0
LWPOLYLINE
5
119
100
AcDbEntity
8
0
6
ByLayer
62
256
370
-1
100
AcDbPolyline
90
6
70
1
43
0
10
100.101979275
20
157.08077735
10
99.9507531194
20
157.08077735
10
99.6183280554
20
156.964973537
10
99.5338593924
20
156.617562097
10
99.7954397694
20
156.345082537
10
100.101979275
20
156.703393159
0
LWPOLYLINE
5
11A
100
AcDbEntity
8
0
6
ByLayer
62
256
370
-1
100
AcDbPolyline
90
29
70
1
43
0
10
101.104704056
20
157.939087964
10
101.104704056
20
158.106662894
10
101.689172713
20
158.110750087
10
102.27364137
20
158.106662894
10
102.27364137
20
157.939087964
10
102.022960174
20
157.84235772
10
102.182360717
20
157.245627484
10
102.423505128
20
156.644810053
10
102.766829374
20
157.831458538
10
102.743668611
20
157.891404041
10
102.510698587
20
157.939087964
10
102.510698587
20
158.106662894
10
102.934404303
20
158.110750087
10
103.352660428
20
158.106662894
10
103.352660428
20
157.939087964
10
102.760017385
20
157.142085251
10
102.306338917
20
155.781049847
10
101.503886612
20
155.058979013
10
101.284540566
20
155.146172472
10
101.18917272
20
155.354619336
10
101.246393428
20
155.516744674
10
101.392169992
20
155.58758936
10
101.592442469
20
155.493583911
10
101.764104592
20
155.399578463
10
102.046120937
20
155.69249399
10
102.210971071
20
156.113474911
10
102.012060992
20
156.113474911
10
101.431679529
20
157.667970802
10
101.3254125
20
157.87369287
0
LWPOLYLINE
5
11B
100
AcDbEntity
8
0
6
ByLayer
62
256
370
-1
100
AcDbPolyline
90
4
70
1
43
0
10
104.766829346
20
156.802848198
10
104.766829346
20
157.326008954
10
105.821325244
20
157.326008954
10
105.821325244
20
156.802848198
0
LWPOLYLINE
5
11C
100
AcDbEntity
8
0
6
ByLayer
62
256
370
-1
100
AcDbPolyline
90
23
70
1
43
0
10
108.058382433
20
157.881867257
10
108.53113447
20
158.110750087
10
108.937129015
20
157.729278703
10
108.893532285
20
157.554891784
10
108.719145367
20
157.507207861
10
108.50661131
20
157.599850912
10
108.478000956
20
157.768788239
10
108.343123574
20
157.86143129
10
108.0788184
20
157.360068899
10
108.0788184
20
156.496308693
10
108.183723031
20
156.304210603
10
108.422142646
20
156.285137034
10
108.422142646
20
156.105300524
10
107.208246205
20
156.105300524
10
107.208246205
20
156.285137034
10
107.418055467
20
156.306935399
10
107.503886528
20
156.486771908
10
107.503886528
20
157.733365896
10
107.416693069
20
157.909115213
10
107.208246205
20
157.935000771
10
107.208246205
20
158.106662894
10
107.697347016
20
158.110750087
10
108.058382433
20
158.106662894
0
LWPOLYLINE
5
11D
100
AcDbEntity
8
0
6
ByLayer
62
256
370
-1
100
AcDbPolyline
90
28
70
1
43
0
10
110.027047256
20
157.616199685
10
110.390807469
20
158.176145182
10
110.072006383
20
158.614837274
10
109.818600392
20
158.463611118
10
109.769554072
20
158.180232375
10
109.608791131
20
158.029006219
10
109.389445085
20
158.029006219
10
109.257292498
20
158.182957171
10
109.505248898
20
158.672057981
10
110.052932814
20
158.808297761
10
111.022960049
20
158.137998043
10
110.53249684
20
157.552166989
10
110.53249684
20
157.548079795
10
110.945303374
20
157.32192176
10
111.063831983
20
156.870968088
10
110.115603113
20
156.105300524
10
109.213695769
20
156.710205148
10
109.364921925
20
156.877780077
10
109.573368788
20
156.877780077
10
109.743668513
20
156.714292341
10
109.800889221
20
156.411840029
10
110.063831997
20
156.248352293
10
110.370371502
20
156.469060737
10
110.419417823
20
156.881867271
10
110.304976407
20
157.30966018
10
109.969826548
20
157.413202413
10
109.724594944
20
157.396853639
10
109.724594944
20
157.629823663
0
ENDSEC
0
SECTION
2
OBJECTS
0
DICTIONARY
5
C
330
0
100
AcDbDictionary
281
1
3
ACAD_GROUP
350
D
0
DICTIONARY
5
D
330
C
100
AcDbDictionary
281
1
0
ENDSEC
0
EOF
