<?xml version="1.0" encoding="UTF-8" standalone="no"?>
<svg width="7725.83mm" height="8360.83mm"
 viewBox="0 0 21900 23700"
 xmlns="http://www.w3.org/2000/svg" xmlns:xlink="http://www.w3.org/1999/xlink"  version="1.2" baseProfile="tiny">
<title>Qt Svg Document</title>
<desc>Generated with Qt</desc>
<defs>
</defs>
<g fill="none" stroke="black" stroke-width="1" fill-rule="evenodd" stroke-linecap="square" stroke-linejoin="bevel" >

<g fill="#ffffff" fill-opacity="1" stroke="none" transform="matrix(1,0,0,1,0,0)"
font-family="Noto Sans" font-size="9" font-weight="400" font-style="normal" 
>
<path vector-effect="non-scaling-stroke" fill-rule="evenodd" d="M0,0 L21900,0 L21900,23700 L0,23700 L0,0"/>
</g>

<g fill="#00ffff" fill-opacity="1" stroke="none" transform="matrix(1,0,0,1,0,0)"
font-family="Noto Sans" font-size="9" font-weight="400" font-style="normal" 
>
<path vector-effect="non-scaling-stroke" fill-rule="evenodd" d="M3,2 L7,2 L7,6 L3,6 L3,2"/>
</g>

<g fill="#0000ff" fill-opacity="1" stroke="none" transform="matrix(1,0,0,1,0,0)"
font-family="Noto Sans" font-size="9" font-weight="400" font-style="normal" 
>
<path vector-effect="non-scaling-stroke" fill-rule="evenodd" d="M21893,2 L21897,2 L21897,6 L21893,6 L21893,2"/>
</g>

<g fill="#00ffff" fill-opacity="1" stroke="none" transform="matrix(1,0,0,1,0,0)"
font-family="Noto Sans" font-size="9" font-weight="400" font-style="normal" 
>
<path vector-effect="non-scaling-stroke" fill-rule="evenodd" d="M21893,2 L21897,2 L21897,6 L21893,6 L21893,2"/>
</g>

<g fill="#0000ff" fill-opacity="1" stroke="none" transform="matrix(1,0,0,1,0,0)"
font-family="Noto Sans" font-size="9" font-weight="400" font-style="normal" 
>
<path vector-effect="non-scaling-stroke" fill-rule="evenodd" d="M21893,23692 L21897,23692 L21897,23696 L21893,23696 L21893,23692"/>
</g>

<g fill="#00ffff" fill-opacity="1" stroke="none" transform="matrix(1,0,0,1,0,0)"
font-family="Noto Sans" font-size="9" font-weight="400" font-style="normal" 
>
<path vector-effect="non-scaling-stroke" fill-rule="evenodd" d="M21893,23692 L21897,23692 L21897,23696 L21893,23696 L21893,23692"/>
</g>

<g fill="#0000ff" fill-opacity="1" stroke="none" transform="matrix(1,0,0,1,0,0)"
font-family="Noto Sans" font-size="9" font-weight="400" font-style="normal" 
>
<path vector-effect="non-scaling-stroke" fill-rule="evenodd" d="M3,23692 L7,23692 L7,23696 L3,23696 L3,23692"/>
</g>

<g fill="#00ffff" fill-opacity="1" stroke="none" transform="matrix(1,0,0,1,0,0)"
font-family="Noto Sans" font-size="9" font-weight="400" font-style="normal" 
>
<path vector-effect="non-scaling-stroke" fill-rule="evenodd" d="M3,23692 L7,23692 L7,23696 L3,23696 L3,23692"/>
</g>

<g fill="#0000ff" fill-opacity="1" stroke="none" transform="matrix(1,0,0,1,0,0)"
font-family="Noto Sans" font-size="9" font-weight="400" font-style="normal" 
>
<path vector-effect="non-scaling-stroke" fill-rule="evenodd" d="M3,2 L7,2 L7,6 L3,6 L3,2"/>
</g>

<g fill="#00ffff" fill-opacity="1" stroke="none" transform="matrix(1,0,0,1,0,0)"
font-family="Noto Sans" font-size="9" font-weight="400" font-style="normal" 
>
<path vector-effect="non-scaling-stroke" fill-rule="evenodd" d="M3301,2401 L3305,2401 L3305,2405 L3301,2405 L3301,2401"/>
</g>

<g fill="#0000ff" fill-opacity="1" stroke="none" transform="matrix(1,0,0,1,0,0)"
font-family="Noto Sans" font-size="9" font-weight="400" font-style="normal" 
>
<path vector-effect="non-scaling-stroke" fill-rule="evenodd" d="M6300,2401 L6304,2401 L6304,2405 L6300,2405 L6300,2401"/>
</g>

<g fill="#00ffff" fill-opacity="1" stroke="none" transform="matrix(1,0,0,1,0,0)"
font-family="Noto Sans" font-size="9" font-weight="400" font-style="normal" 
>
<path vector-effect="non-scaling-stroke" fill-rule="evenodd" d="M6300,2401 L6304,2401 L6304,2405 L6300,2405 L6300,2401"/>
</g>

<g fill="#0000ff" fill-opacity="1" stroke="none" transform="matrix(1,0,0,1,0,0)"
font-family="Noto Sans" font-size="9" font-weight="400" font-style="normal" 
>
<path vector-effect="non-scaling-stroke" fill-rule="evenodd" d="M6300,1502 L6304,1502 L6304,1506 L6300,1506 L6300,1502"/>
</g>

<g fill="#00ffff" fill-opacity="1" stroke="none" transform="matrix(1,0,0,1,0,0)"
font-family="Noto Sans" font-size="9" font-weight="400" font-style="normal" 
>
<path vector-effect="non-scaling-stroke" fill-rule="evenodd" d="M6300,1502 L6304,1502 L6304,1506 L6300,1506 L6300,1502"/>
</g>

<g fill="#0000ff" fill-opacity="1" stroke="none" transform="matrix(1,0,0,1,0,0)"
font-family="Noto Sans" font-size="9" font-weight="400" font-style="normal" 
>
<path vector-effect="non-scaling-stroke" fill-rule="evenodd" d="M12297,1502 L12301,1502 L12301,1506 L12297,1506 L12297,1502"/>
</g>

<g fill="#00ffff" fill-opacity="1" stroke="none" transform="matrix(1,0,0,1,0,0)"
font-family="Noto Sans" font-size="9" font-weight="400" font-style="normal" 
>
<path vector-effect="non-scaling-stroke" fill-rule="evenodd" d="M12297,1502 L12301,1502 L12301,1506 L12297,1506 L12297,1502"/>
</g>

<g fill="#0000ff" fill-opacity="1" stroke="none" transform="matrix(1,0,0,1,0,0)"
font-family="Noto Sans" font-size="9" font-weight="400" font-style="normal" 
>
<path vector-effect="non-scaling-stroke" fill-rule="evenodd" d="M12297,2401 L12301,2401 L12301,2405 L12297,2405 L12297,2401"/>
</g>

<g fill="#00ffff" fill-opacity="1" stroke="none" transform="matrix(1,0,0,1,0,0)"
font-family="Noto Sans" font-size="9" font-weight="400" font-style="normal" 
>
<path vector-effect="non-scaling-stroke" fill-rule="evenodd" d="M12297,2401 L12301,2401 L12301,2405 L12297,2405 L12297,2401"/>
</g>

<g fill="#0000ff" fill-opacity="1" stroke="none" transform="matrix(1,0,0,1,0,0)"
font-family="Noto Sans" font-size="9" font-weight="400" font-style="normal" 
>
<path vector-effect="non-scaling-stroke" fill-rule="evenodd" d="M18744,2401 L18748,2401 L18748,2405 L18744,2405 L18744,2401"/>
</g>

<g fill="#00ffff" fill-opacity="1" stroke="none" transform="matrix(1,0,0,1,0,0)"
font-family="Noto Sans" font-size="9" font-weight="400" font-style="normal" 
>
<path vector-effect="non-scaling-stroke" fill-rule="evenodd" d="M18744,2401 L18748,2401 L18748,2405 L18744,2405 L18744,2401"/>
</g>

<g fill="#0000ff" fill-opacity="1" stroke="none" transform="matrix(1,0,0,1,0,0)"
font-family="Noto Sans" font-size="9" font-weight="400" font-style="normal" 
>
<path vector-effect="non-scaling-stroke" fill-rule="evenodd" d="M18744,15295 L18748,15295 L18748,15299 L18744,15299 L18744,15295"/>
</g>

<g fill="#00ffff" fill-opacity="1" stroke="none" transform="matrix(1,0,0,1,0,0)"
font-family="Noto Sans" font-size="9" font-weight="400" font-style="normal" 
>
<path vector-effect="non-scaling-stroke" fill-rule="evenodd" d="M18744,15295 L18748,15295 L18748,15299 L18744,15299 L18744,15295"/>
</g>

<g fill="#0000ff" fill-opacity="1" stroke="none" transform="matrix(1,0,0,1,0,0)"
font-family="Noto Sans" font-size="9" font-weight="400" font-style="normal" 
>
<path vector-effect="non-scaling-stroke" fill-rule="evenodd" d="M17245,15295 L17249,15295 L17249,15299 L17245,15299 L17245,15295"/>
</g>

<g fill="#00ffff" fill-opacity="1" stroke="none" transform="matrix(1,0,0,1,0,0)"
font-family="Noto Sans" font-size="9" font-weight="400" font-style="normal" 
>
<path vector-effect="non-scaling-stroke" fill-rule="evenodd" d="M17245,15295 L17249,15295 L17249,15299 L17245,15299 L17245,15295"/>
</g>

<g fill="#0000ff" fill-opacity="1" stroke="none" transform="matrix(1,0,0,1,0,0)"
font-family="Noto Sans" font-size="9" font-weight="400" font-style="normal" 
>
<path vector-effect="non-scaling-stroke" fill-rule="evenodd" d="M17245,19194 L17249,19194 L17249,19198 L17245,19198 L17245,19194"/>
</g>

<g fill="#00ffff" fill-opacity="1" stroke="none" transform="matrix(1,0,0,1,0,0)"
font-family="Noto Sans" font-size="9" font-weight="400" font-style="normal" 
>
<path vector-effect="non-scaling-stroke" fill-rule="evenodd" d="M17245,19194 L17249,19194 L17249,19198 L17245,19198 L17245,19194"/>
</g>

<g fill="#0000ff" fill-opacity="1" stroke="none" transform="matrix(1,0,0,1,0,0)"
font-family="Noto Sans" font-size="9" font-weight="400" font-style="normal" 
>
<path vector-effect="non-scaling-stroke" fill-rule="evenodd" d="M11247,19194 L11251,19194 L11251,19198 L11247,19198 L11247,19194"/>
</g>

<g fill="#00ffff" fill-opacity="1" stroke="none" transform="matrix(1,0,0,1,0,0)"
font-family="Noto Sans" font-size="9" font-weight="400" font-style="normal" 
>
<path vector-effect="non-scaling-stroke" fill-rule="evenodd" d="M11247,19194 L11251,19194 L11251,19198 L11247,19198 L11247,19194"/>
</g>

<g fill="#0000ff" fill-opacity="1" stroke="none" transform="matrix(1,0,0,1,0,0)"
font-family="Noto Sans" font-size="9" font-weight="400" font-style="normal" 
>
<path vector-effect="non-scaling-stroke" fill-rule="evenodd" d="M11247,22792 L11251,22792 L11251,22796 L11247,22796 L11247,22792"/>
</g>

<g fill="#00ffff" fill-opacity="1" stroke="none" transform="matrix(1,0,0,1,0,0)"
font-family="Noto Sans" font-size="9" font-weight="400" font-style="normal" 
>
<path vector-effect="non-scaling-stroke" fill-rule="evenodd" d="M11247,22792 L11251,22792 L11251,22796 L11247,22796 L11247,22792"/>
</g>

<g fill="#0000ff" fill-opacity="1" stroke="none" transform="matrix(1,0,0,1,0,0)"
font-family="Noto Sans" font-size="9" font-weight="400" font-style="normal" 
>
<path vector-effect="non-scaling-stroke" fill-rule="evenodd" d="M6300,22792 L6304,22792 L6304,22796 L6300,22796 L6300,22792"/>
</g>

<g fill="#00ffff" fill-opacity="1" stroke="none" transform="matrix(1,0,0,1,0,0)"
font-family="Noto Sans" font-size="9" font-weight="400" font-style="normal" 
>
<path vector-effect="non-scaling-stroke" fill-rule="evenodd" d="M6300,22792 L6304,22792 L6304,22796 L6300,22796 L6300,22792"/>
</g>

<g fill="#0000ff" fill-opacity="1" stroke="none" transform="matrix(1,0,0,1,0,0)"
font-family="Noto Sans" font-size="9" font-weight="400" font-style="normal" 
>
<path vector-effect="non-scaling-stroke" fill-rule="evenodd" d="M6300,13496 L6304,13496 L6304,13500 L6300,13500 L6300,13496"/>
</g>

<g fill="#00ffff" fill-opacity="1" stroke="none" transform="matrix(1,0,0,1,0,0)"
font-family="Noto Sans" font-size="9" font-weight="400" font-style="normal" 
>
<path vector-effect="non-scaling-stroke" fill-rule="evenodd" d="M6300,13496 L6304,13496 L6304,13500 L6300,13500 L6300,13496"/>
</g>

<g fill="#0000ff" fill-opacity="1" stroke="none" transform="matrix(1,0,0,1,0,0)"
font-family="Noto Sans" font-size="9" font-weight="400" font-style="normal" 
>
<path vector-effect="non-scaling-stroke" fill-rule="evenodd" d="M3301,13496 L3305,13496 L3305,13500 L3301,13500 L3301,13496"/>
</g>

<g fill="#00ffff" fill-opacity="1" stroke="none" transform="matrix(1,0,0,1,0,0)"
font-family="Noto Sans" font-size="9" font-weight="400" font-style="normal" 
>
<path vector-effect="non-scaling-stroke" fill-rule="evenodd" d="M3301,13496 L3305,13496 L3305,13500 L3301,13500 L3301,13496"/>
</g>

<g fill="#0000ff" fill-opacity="1" stroke="none" transform="matrix(1,0,0,1,0,0)"
font-family="Noto Sans" font-size="9" font-weight="400" font-style="normal" 
>
<path vector-effect="non-scaling-stroke" fill-rule="evenodd" d="M3301,2401 L3305,2401 L3305,2405 L3301,2405 L3301,2401"/>
</g>
</g>
</svg>
